<svg xmlns="http://www.w3.org/2000/svg" viewBox="0 0 494.71 326.68"><defs><style>.cls-1{opacity:0;}.cls-2{fill:#47372b;}</style></defs><g id="Layer_2" data-name="Layer 2"><g id="Layer_1-2" data-name="Layer 1"><rect class="cls-1" width="494.71" height="326.68"/><path d="M197.35,164c1.84,0,3.47.06,4.89.16a12.07,12.07,0,0,1,3.5.7,4.7,4.7,0,0,1,2.09,1.54,4.46,4.46,0,0,1,.7,2.64,5.92,5.92,0,0,1-.43,2,7.13,7.13,0,0,1-1.44,2.3,11.77,11.77,0,0,1-2.67,2.15,13.6,13.6,0,0,1-4.06,1.57c-.08,0-.12.06-.12.19a.11.11,0,0,0,.12.12l1.91.4a6.81,6.81,0,0,1,2,.73,5.13,5.13,0,0,1,1.57,1.36,3.55,3.55,0,0,1,.64,2.24,7.33,7.33,0,0,1-.92,3.47,10.32,10.32,0,0,1-2.61,3.16,13.52,13.52,0,0,1-4.12,2.31,15.92,15.92,0,0,1-5.49.89,22.71,22.71,0,0,1-3.81-.34,12.68,12.68,0,0,1-3.75-1.2c-.29-.16-.55-.29-.8-.4a1.72,1.72,0,0,0-.61-.15,4.16,4.16,0,0,0-1.54.49,10.16,10.16,0,0,0-1.91,1.17l-.36-.31a12,12,0,0,0,1.07-1.26c.19-.26.34-.5.46-.7.66-1.11,1.33-2.27,2-3.48s1.36-2.39,2-3.56,1.25-2.29,1.84-3.38,1.14-2.06,1.63-2.92.81-1.56,1.32-2.49,1-1.87,1.53-2.85,1-2,1.48-2.92.89-1.83,1.26-2.61a.71.71,0,0,0,.06-.31c0-.12-.12-.18-.37-.18a16.69,16.69,0,0,0-1.9.12c-.7.08-1.38.17-2,.28l-1.84.27a9.28,9.28,0,0,1-1.36.13c-.65,0-1-.21-1-.62a1.38,1.38,0,0,1,.37-1q.12,0,.18.18a.78.78,0,0,0,.53.25,17.86,17.86,0,0,0,1.93.06q2,0,3.72-.09C194.19,164.06,195.63,164,197.35,164Zm8.23,4.49a3.54,3.54,0,0,0-.49-1.94,3.43,3.43,0,0,0-1.29-1.19,5.41,5.41,0,0,0-1.78-.59,13.07,13.07,0,0,0-2-.15,5.06,5.06,0,0,0-1.26.15,1.87,1.87,0,0,0-1,.71,18.35,18.35,0,0,0-1.38,2.06l-1.32,2.24q-2,3.63-4.36,8.11T186.05,187a3.36,3.36,0,0,0-.37,1.11,2.07,2.07,0,0,0,.3.92,3.64,3.64,0,0,0,1,1.08,6.78,6.78,0,0,0,1.81.89,9.08,9.08,0,0,0,2.77.36,12.86,12.86,0,0,0,4.14-.82,13.84,13.84,0,0,0,3.72-2.09,10.42,10.42,0,0,0,2.67-3.14,7.81,7.81,0,0,0,1-3.9,3.13,3.13,0,0,0-1.36-2.73,7.11,7.11,0,0,0-3.8-1.08,9.11,9.11,0,0,0-1.91.22,9.51,9.51,0,0,1-1.84.21.66.66,0,0,1-.28-.15.75.75,0,0,1-.09-.46.77.77,0,0,1,.18-.52.61.61,0,0,1,.49-.22,4.57,4.57,0,0,1,1.29.18,4.24,4.24,0,0,0,1.29.19,10.06,10.06,0,0,0,1.26-.09,5.59,5.59,0,0,0,1.2-.28,12.4,12.4,0,0,0,2.18-1.26,10.05,10.05,0,0,0,1.94-1.81,9.14,9.14,0,0,0,1.38-2.34A7.25,7.25,0,0,0,205.58,168.52Z"/><path d="M227.76,184a37,37,0,0,1-2.45,3.1,32,32,0,0,1-2.95,3,18.11,18.11,0,0,1-3.14,2.25,6.22,6.22,0,0,1-3,.89,2,2,0,0,1-2.21-2.28,6.11,6.11,0,0,1,.15-1.25,8.8,8.8,0,0,1,.53-1.57c-.25.29-.53.62-.83,1a9.11,9.11,0,0,1-1,1.11,5.58,5.58,0,0,1-1.29.86,3.64,3.64,0,0,1-1.56.34,1.61,1.61,0,0,1-1.11-.4,1.64,1.64,0,0,1-.43-1.26,4.33,4.33,0,0,1,.22-1.23,14.54,14.54,0,0,1,.79-2c.39-.84.93-1.88,1.6-3.13s1.55-2.8,2.61-4.64c.21-.41.39-.62.56-.62a1.28,1.28,0,0,1,.89.53c.3.35.46.58.46.7a2,2,0,0,1-.37.74c-.66,1-1.27,2-1.84,3s-1.08,1.91-1.51,2.77-.78,1.62-1,2.3a4.63,4.63,0,0,0-.4,1.57c0,.61.22.92.67.92a3.08,3.08,0,0,0,1.69-.95,16.21,16.21,0,0,0,2.55-3.23c.37-.65.75-1.34,1.14-2.06l1.13-2.06c.37-.65.72-1.26,1.05-1.81s.57-1,.74-1.26.37-.43.49-.43.35.18.55.52a2.4,2.4,0,0,1,.31,1.26,1.74,1.74,0,0,1-.25.92q-.73,1.11-1.56,2.19a21.66,21.66,0,0,0-1.54,2.24,15.55,15.55,0,0,0-1.2,2.46,7.81,7.81,0,0,0-.49,2.82q0,1.35,1.29,1.35A4.53,4.53,0,0,0,219,192a16.79,16.79,0,0,0,2.61-1.81,29.24,29.24,0,0,0,2.92-2.83,35.5,35.5,0,0,0,2.86-3.63C227.64,183.61,227.76,183.72,227.76,184Z"/><path d="M263.64,150.52a1.06,1.06,0,0,1-.36.73,1.91,1.91,0,0,0-.49,1.05c-.09.29-.23.43-.44.43a.8.8,0,0,1-.36-.09l-.46-.22a3.94,3.94,0,0,0-.68-.21,4.83,4.83,0,0,0-1.14-.1,8.4,8.4,0,0,0-2.09.28,6.77,6.77,0,0,0-1.9.83,22.37,22.37,0,0,0-3.72,3.13,33.33,33.33,0,0,0-3.65,4.43q-4.12,5.9-7.22,11T235.94,181a62.11,62.11,0,0,0-3.14,6.91,13.86,13.86,0,0,0-1,4.21,3,3,0,0,0,.46,1.72,1.69,1.69,0,0,0,1.5.68,5.47,5.47,0,0,0,3.17-1,15,15,0,0,0,2.85-2.61,21.6,21.6,0,0,0,2.46-3.47c.74-1.27,1.37-2.46,1.91-3.56a.32.32,0,0,1,.4-.19c.18,0,.17.21,0,.49q-1.11,2.22-2.37,4.21a25.11,25.11,0,0,1-2.64,3.51,12.15,12.15,0,0,1-2.89,2.36,6,6,0,0,1-3,.86,3.15,3.15,0,0,1-2.46-.89,3.32,3.32,0,0,1-.8-2.3,9.73,9.73,0,0,1,.59-3.17,35.51,35.51,0,0,1,1.81-4.14q-1.73,2.08-3,3.5a22.5,22.5,0,0,1-2.27,2.21,9.61,9.61,0,0,1-1.69,1.14,3,3,0,0,1-1.26.33,1.29,1.29,0,0,1-1.17-.46,2.05,2.05,0,0,1-.31-1.2,4.61,4.61,0,0,1,.31-1.44,7.88,7.88,0,0,1,.86-1.75,24.48,24.48,0,0,1,5.07-6,14.51,14.51,0,0,1,6.91-3.07q3-5.16,5.65-9.28t5.9-8.05a59.27,59.27,0,0,1,5.26-5.84,20,20,0,0,1,5.37-3.81,8.84,8.84,0,0,1,3.63-1,3.05,3.05,0,0,1,1.19.19C263.49,150.15,263.64,150.31,263.64,150.52Zm-27.95,28.2a6.83,6.83,0,0,0-3.59.89,9.73,9.73,0,0,0-2.25,2.06,26.39,26.39,0,0,0-3.31,4.94,8.19,8.19,0,0,0-1,3,.43.43,0,0,0,.25.43.82.82,0,0,0,.37.13,3.6,3.6,0,0,0,1.56-.92,22.32,22.32,0,0,0,2.52-2.49,44.3,44.3,0,0,0,2.86-3.66A29.86,29.86,0,0,0,235.69,178.72Z"/><path d="M280.29,150.52a1.06,1.06,0,0,1-.36.73,2,2,0,0,0-.5,1.05c-.08.29-.22.43-.43.43a.8.8,0,0,1-.36-.09l-.47-.22a3.81,3.81,0,0,0-.67-.21,4.83,4.83,0,0,0-1.14-.1,8.4,8.4,0,0,0-2.09.28,6.77,6.77,0,0,0-1.9.83,22.37,22.37,0,0,0-3.72,3.13,33.33,33.33,0,0,0-3.65,4.43q-4.12,5.9-7.22,11t-5.2,9.18a63.69,63.69,0,0,0-3.13,6.91,14.17,14.17,0,0,0-1,4.21,3,3,0,0,0,.46,1.72,1.68,1.68,0,0,0,1.5.68,5.47,5.47,0,0,0,3.17-1,15,15,0,0,0,2.85-2.61,22.93,22.93,0,0,0,2.46-3.47c.74-1.27,1.37-2.46,1.91-3.56a.32.32,0,0,1,.4-.19c.18,0,.17.21,0,.49q-1.11,2.22-2.37,4.21a25.11,25.11,0,0,1-2.64,3.51,12.15,12.15,0,0,1-2.89,2.36,6,6,0,0,1-3,.86,3.16,3.16,0,0,1-2.46-.89,3.32,3.32,0,0,1-.8-2.3,9.73,9.73,0,0,1,.59-3.17,35.51,35.51,0,0,1,1.81-4.14q-1.72,2.08-3,3.5a22.5,22.5,0,0,1-2.27,2.21,9.61,9.61,0,0,1-1.69,1.14,3.07,3.07,0,0,1-1.26.33,1.29,1.29,0,0,1-1.17-.46,2.05,2.05,0,0,1-.31-1.2,4.61,4.61,0,0,1,.31-1.44,7.88,7.88,0,0,1,.86-1.75,24.26,24.26,0,0,1,5.07-6,14.51,14.51,0,0,1,6.91-3.07q3-5.16,5.65-9.28t5.9-8.05a59.27,59.27,0,0,1,5.26-5.84,20,20,0,0,1,5.37-3.81,8.84,8.84,0,0,1,3.63-1,3.05,3.05,0,0,1,1.19.19C280.14,150.15,280.29,150.31,280.29,150.52Zm-28,28.2a6.83,6.83,0,0,0-3.59.89,9.73,9.73,0,0,0-2.25,2.06,25.9,25.9,0,0,0-3.31,4.94,8.19,8.19,0,0,0-1,3,.43.43,0,0,0,.25.43.82.82,0,0,0,.37.13,3.6,3.6,0,0,0,1.56-.92,22.32,22.32,0,0,0,2.52-2.49,44.3,44.3,0,0,0,2.86-3.66A29.86,29.86,0,0,0,252.34,178.72Z"/><path d="M272.31,183.33a27.92,27.92,0,0,1-3.38,3.62,29.72,29.72,0,0,1-3.5,2.77,10.82,10.82,0,0,1-2.52,1.22,6.48,6.48,0,0,1-3.2.37,2.24,2.24,0,0,1-.89-.3,2.34,2.34,0,0,1-.68-.65,1.86,1.86,0,0,1-.27-1.07,5.84,5.84,0,0,1,.61-2.19c.41-.92.89-1.87,1.45-2.85s1.1-1.93,1.66-2.83,1-1.57,1.32-2a2.37,2.37,0,0,1,1.07-.83,3.41,3.41,0,0,1,1-.33q.3,0,.3.18a1.19,1.19,0,0,1-.09.37,1.06,1.06,0,0,1-.21.37c-.54.82-1.08,1.72-1.63,2.7s-1.06,1.94-1.51,2.86a21,21,0,0,0-1.07,2.55,6,6,0,0,0-.4,1.84,1.34,1.34,0,0,0,.4,1.08,1.61,1.61,0,0,0,1.07.33,5.65,5.65,0,0,0,2.71-.82,21.6,21.6,0,0,0,2.91-2,27.53,27.53,0,0,0,2.68-2.46,23.81,23.81,0,0,0,1.9-2.21c.21-.21.32-.26.34-.15A.93.93,0,0,1,272.31,183.33Zm-2.77-13.71a2.24,2.24,0,0,1-.64,1.48,1.9,1.9,0,0,1-1.45.74.65.65,0,0,1-.73-.74,2.47,2.47,0,0,1,.58-1.54,1.77,1.77,0,0,1,1.44-.73A.7.7,0,0,1,269.54,169.62Z"/><path d="M288.47,183.45a34.17,34.17,0,0,1-2.55,3.1,23.06,23.06,0,0,1-3.08,2.8,18.72,18.72,0,0,1-3.31,2,7.6,7.6,0,0,1-3.29.8,4.15,4.15,0,0,1-1.35-.21,1,1,0,0,1-.62-1.08,5.49,5.49,0,0,1,.62-2.18q.62-1.32,1.44-2.79c.55-1,1.13-2,1.72-3a26.43,26.43,0,0,0,1.45-2.83.68.68,0,0,0,0-.52c-.07-.15-.2-.16-.4,0a17,17,0,0,0-1.6,1.16c-.61.5-1.24,1-1.87,1.57s-1.25,1.12-1.85,1.69a18.7,18.7,0,0,0-1.44,1.54c-.66,1-1.22,2-1.69,2.82s-1.06,1.83-1.75,2.89c-.17.25-.29.37-.37.37s-.38-.23-.52-.68a3.65,3.65,0,0,1-.22-.86,2.78,2.78,0,0,1,.77-1.5c.51-.64,1.08-1.34,1.69-2.12q1-2,2-4.15c.69-1.45,1.29-2.75,1.78-3.9a.59.59,0,0,1,.55-.31.93.93,0,0,1,.68.31,1,1,0,0,1,.31.68,6.84,6.84,0,0,1-.9,1.68,32.16,32.16,0,0,0-1.75,3.35c.78-.69,1.63-1.43,2.55-2.21s1.8-1.49,2.64-2.15,1.58-1.2,2.22-1.63a3.05,3.05,0,0,1,1.32-.64.61.61,0,0,1,.46.27.9.9,0,0,1,.21.53,1.62,1.62,0,0,1-.3.73c-.45.66-1,1.5-1.66,2.52s-1.28,2.08-1.88,3.17a33.35,33.35,0,0,0-1.5,3.1,6.56,6.56,0,0,0-.62,2.33,1.36,1.36,0,0,0,.31,1,1.47,1.47,0,0,0,1,.27,5.18,5.18,0,0,0,2.46-.79,23.11,23.11,0,0,0,2.92-2,25.57,25.57,0,0,0,2.86-2.67,21.8,21.8,0,0,0,2.21-2.83.28.28,0,0,1,.37-.09C288.69,183.05,288.67,183.2,288.47,183.45Z"/><path d="M300,175a2.33,2.33,0,0,1-.31,1.11q-3.07,5.71-5.53,10.1t-4.67,8.11c-1.47,2.48-2.93,4.88-4.36,7.19s-2.95,4.78-4.55,7.41a51.75,51.75,0,0,1-4.27,5.86,27.42,27.42,0,0,1-5.1,4.73,23.85,23.85,0,0,1-6.08,3.14,21.91,21.91,0,0,1-7.22,1.13,12.69,12.69,0,0,1-4.76-.76,7.15,7.15,0,0,1-4.46-5,14,14,0,0,1-.43-3.44,11.07,11.07,0,0,1,.13-1.57,6.89,6.89,0,0,1,.3-1.32c0-.16.13-.25.25-.25s.18.11.18.31-.16.63-.24,1a6.1,6.1,0,0,0-.12,1.25,7.13,7.13,0,0,0,.92,3.72,7.32,7.32,0,0,0,2.55,2.58,12.6,12.6,0,0,0,3.84,1.54,20.41,20.41,0,0,0,4.73.52,17.34,17.34,0,0,0,5.31-.86,17.78,17.78,0,0,0,5.32-2.86,29.56,29.56,0,0,0,5.19-5.19,50.06,50.06,0,0,0,5-7.86L285,199.3q1.77-3.31,3.44-6.36t3-5.47l1.93-3.53c-.82,1.11-1.62,2.15-2.39,3.13s-1.51,1.85-2.19,2.58a12,12,0,0,1-1.93,1.76,3,3,0,0,1-1.66.64,1.22,1.22,0,0,1-.92-.37,1.56,1.56,0,0,1-.37-1.17,6.87,6.87,0,0,1,.77-2.61,24.7,24.7,0,0,1,2-3.53,27,27,0,0,1,2.86-3.5,11.47,11.47,0,0,1,3.26-2.46,6.54,6.54,0,0,1,2.95-.74,2.4,2.4,0,0,1,.67.07c.33-.58.67-1.15,1-1.73s.7-1.18,1.07-1.84.56-.8.8-.8.32.19.46.56A2.7,2.7,0,0,1,300,175Zm-3.94,3.63a1.55,1.55,0,0,0-.49-.07h-.43a8.4,8.4,0,0,0-1.62.16,2.81,2.81,0,0,0-1.33.64,15,15,0,0,0-2.64,2.89,23.11,23.11,0,0,0-1.84,3.13,17.19,17.19,0,0,0-1.08,2.8,8.21,8.21,0,0,0-.33,1.81c0,.45.12.68.36.68s.74-.35,1.48-1a26.2,26.2,0,0,0,2.49-2.76q1.38-1.72,2.85-3.87A35.83,35.83,0,0,0,296.08,178.6Z"/><path d="M374.79,161.27c.21.2.16.35-.12.43a1.44,1.44,0,0,0-.43-.06h-.37a6.64,6.64,0,0,0-1.81.37,13.72,13.72,0,0,0-3.35,1.84,50,50,0,0,0-5.44,4.52q-3.28,3-8.08,8.38-1.23,1.35-2.86,3.32c-1.08,1.31-2.17,2.63-3.25,4s-2.08,2.6-3,3.81a32.87,32.87,0,0,0-2,3,1.32,1.32,0,0,1-.37.46,1.11,1.11,0,0,1-.55.28,7.87,7.87,0,0,0-1.57.4,3.31,3.31,0,0,0-1.26.77c-.37,0-.41-.21-.12-.62a3.58,3.58,0,0,0,.34-1.41c.1-.82.19-1.83.27-3s.16-2.56.22-4.06.1-3,.12-4.51,0-3,.06-4.37,0-2.6,0-3.62c0-.57-.14-.86-.43-.86a1.34,1.34,0,0,0-.61.31c-.33.28-.91.82-1.75,1.59l-3,2.83-3.9,3.69q-2.16,2-4.33,4.17c-1.46,1.44-2.87,2.87-4.24,4.31s-2.64,2.78-3.78,4.05l-.37.37a.54.54,0,0,1-.37.18,5.36,5.36,0,0,0-1.63.22,8.63,8.63,0,0,0-1.32.52c-.29,0-.35-.18-.18-.55a13.57,13.57,0,0,0,1-1.94q.53-1.2,1.2-2.79c.2-.49.51-1.3.92-2.43s.86-2.4,1.35-3.81,1-2.89,1.51-4.42,1-3,1.41-4.33.79-2.51,1.07-3.48a8.56,8.56,0,0,0,.43-1.87c0-.57-.3-.86-.92-.86a6.38,6.38,0,0,0-1.75.25,5.77,5.77,0,0,1-1.44.24c-.21,0-.32-.08-.34-.24s.09-.27.34-.31c2-.37,3.48-.67,4.55-.89l2.36-.52a9.32,9.32,0,0,0,1-.28,1,1,0,0,1,.34-.09c.21,0,.31.08.31.24a.4.4,0,0,1-.19.37,3.12,3.12,0,0,0-.43.65c-.16.3-.33.67-.52,1.1s-.38.89-.58,1.38-.39,1-.55,1.42q-1.61,4.23-3.11,9t-2.79,9.34c-.13.45-.14.68,0,.7s.21,0,.33-.15q2.64-2.46,5.75-5.47l6.33-6.11q3.22-3.1,6.3-6c2-1.95,3.93-3.7,5.65-5.25a.31.31,0,0,1,.34.12c.1.12.11.22,0,.31a1.22,1.22,0,0,0-.56.49,1.9,1.9,0,0,0-.3.8c-.09.69-.17,1.57-.25,2.64s-.15,2.21-.21,3.44-.11,2.49-.13,3.78,0,2.55,0,3.78c0,1.88,0,3.46.06,4.73s.06,2.29.06,3.07c0,.29.05.43.13.43s.24-.08.37-.25c.73-.9,1.54-1.87,2.42-2.92l2.71-3.22c.92-1.11,1.84-2.19,2.76-3.26l2.55-3c.94-1.06,2-2.19,3.07-3.38s2.22-2.35,3.35-3.5l3.29-3.32c1.06-1.06,2-2,2.89-2.76a30.57,30.57,0,0,1,2.42-2,4.76,4.76,0,0,1,2.86-.92,2.17,2.17,0,0,1,.46.09c.23.06.45.14.68.22l.64.24A1.57,1.57,0,0,1,374.79,161.27Z"/><path d="M370.06,178.84a10.28,10.28,0,0,0-.77,1,5.37,5.37,0,0,0-.52.92.24.24,0,0,1-.25.18s-.1-.06-.18-.18a2.34,2.34,0,0,0-.34-.4,2,2,0,0,0-.58-.4,2.46,2.46,0,0,0-1.05-.19,3.72,3.72,0,0,0-1.78.56,9.45,9.45,0,0,0-1.72,1.23,13.48,13.48,0,0,0-2.06,2.15c-.59.77-1.15,1.58-1.69,2.42s-1,1.7-1.53,2.58-1,1.78-1.6,2.68c0,.12-.16.18-.37.18s-.26-.12-.52-.37-.4-.43-.4-.55a2.5,2.5,0,0,1,.43-1.11c.65-1.14,1.32-2.3,2-3.47l1.9-3.29c.59-1,1.12-1.91,1.57-2.67a17.46,17.46,0,0,0,.92-1.69c.2-.37.35-.55.43-.55a1.78,1.78,0,0,1,.61.31,1,1,0,0,1,.5.86,1.8,1.8,0,0,1-.22.61c-.14.29-.31.59-.49.89s-.36.61-.52.89l-.37.62q-.19.3-.06.3a.49.49,0,0,0,.3-.18c.41-.41.92-.86,1.51-1.35a21.47,21.47,0,0,1,1.87-1.38,14.6,14.6,0,0,1,1.94-1.08,4.13,4.13,0,0,1,1.69-.43,1.59,1.59,0,0,1,1,.28A.74.74,0,0,1,370.06,178.84Z"/><path d="M382.65,183.33a27.83,27.83,0,0,1-3.37,3.62,29.74,29.74,0,0,1-3.51,2.77,10.82,10.82,0,0,1-2.52,1.22,7.32,7.32,0,0,1-2.33.43,7.18,7.18,0,0,1-.86-.06,2.19,2.19,0,0,1-.89-.3,2.34,2.34,0,0,1-.68-.65,1.86,1.86,0,0,1-.27-1.07,5.84,5.84,0,0,1,.61-2.19q.62-1.38,1.44-2.85c.56-1,1.11-1.93,1.66-2.83s1-1.57,1.32-2a2.46,2.46,0,0,1,1.08-.83,3.47,3.47,0,0,1,1-.33c.21,0,.31.06.31.18a1.19,1.19,0,0,1-.09.37,1.06,1.06,0,0,1-.22.37c-.53.82-1.07,1.72-1.63,2.7s-1,1.94-1.5,2.86a23,23,0,0,0-1.08,2.55,6.24,6.24,0,0,0-.39,1.84,1.37,1.37,0,0,0,.39,1.08,1.66,1.66,0,0,0,1.08.33,5.59,5.59,0,0,0,2.7-.82,21.07,21.07,0,0,0,2.92-2,28.61,28.61,0,0,0,2.67-2.46,24.14,24.14,0,0,0,1.91-2.21c.2-.21.32-.26.34-.15A.86.86,0,0,1,382.65,183.33Zm-2.76-13.71a2.25,2.25,0,0,1-.65,1.48,1.9,1.9,0,0,1-1.44.74.66.66,0,0,1-.74-.74,2.48,2.48,0,0,1,.59-1.54,1.77,1.77,0,0,1,1.44-.73A.7.7,0,0,1,379.89,169.62Z"/><path d="M393.84,169a4.45,4.45,0,0,0-1.11.46,2.41,2.41,0,0,0-.92.83q-1.41,2-2.73,4.12t-2.55,4.3h7.61c.13.08.19.16.19.24a.21.21,0,0,1-.12.19l-1.48,0-2.15.09-2.4.12c-.82,0-1.53.08-2.15.13a58.49,58.49,0,0,0-2.64,5.22,9.81,9.81,0,0,0-.92,3.75c0,1.47.68,2.21,2,2.21a6.13,6.13,0,0,0,2.24-.52,19.12,19.12,0,0,0,2.67-1.39.23.23,0,0,1,.37,0c.13.15.08.26-.12.34a18.15,18.15,0,0,1-3.87,2,11.07,11.07,0,0,1-3.63.61,2.69,2.69,0,0,1-1.72-.58,2.42,2.42,0,0,1-.73-2,9.6,9.6,0,0,1,1.1-3.62,57.69,57.69,0,0,1,3.26-5.9l-1.81.15-1.26.09c-.21,0-.31-.08-.31-.24a3,3,0,0,1,.8-.86l3.13-.06,1.23-2.06,1.35-2.27q.68-1.14,1.38-2.22c.47-.71.89-1.38,1.26-2,.45-.21,1.08-.47,1.88-.8s1.5-.6,2.12-.8q.12,0,.18.15C394.06,168.78,394,168.87,393.84,169Z"/><path d="M407.17,184.06a31.19,31.19,0,0,1-2.49,2.68,24,24,0,0,1-3.13,2.52,18.64,18.64,0,0,1-3.5,1.84,9.9,9.9,0,0,1-3.6.71c-1.92,0-2.89-.87-2.89-2.59a9.23,9.23,0,0,1,.89-3.71,16.1,16.1,0,0,1,2.31-3.69,14.7,14.7,0,0,1,3.1-2.83,5.88,5.88,0,0,1,3.23-1.13,1.85,1.85,0,0,1,1.2.3,1.06,1.06,0,0,1,.33.8,3.35,3.35,0,0,1-.46,1.6,5.58,5.58,0,0,1-1.38,1.63,7.91,7.91,0,0,1-2.33,1.29,9.76,9.76,0,0,1-3.38.52,9.67,9.67,0,0,0-.68,1.75,8.1,8.1,0,0,0-.37,2.43c0,1.68.76,2.52,2.27,2.52a7.09,7.09,0,0,0,2.92-.68,16.25,16.25,0,0,0,2.92-1.69,20.59,20.59,0,0,0,2.61-2.21,22.23,22.23,0,0,0,2-2.24.24.24,0,0,1,.28-.06A.23.23,0,0,1,407.17,184.06Zm-6.45-4.79a.71.71,0,0,0-.8-.8,2.22,2.22,0,0,0-1.26.46,7,7,0,0,0-1.26,1.2,16.48,16.48,0,0,0-1.17,1.6,14,14,0,0,0-.92,1.66,1.41,1.41,0,0,0,.43.09l.49,0a4.48,4.48,0,0,0,3.14-1.26A3.94,3.94,0,0,0,400.72,179.27Z"/><path d="M417.92,178.84a10.28,10.28,0,0,0-.77,1,6.18,6.18,0,0,0-.52.92.24.24,0,0,1-.25.18s-.1-.06-.18-.18a2,2,0,0,0-.34-.4,2,2,0,0,0-.58-.4,2.46,2.46,0,0,0-1-.19,3.72,3.72,0,0,0-1.78.56,9.45,9.45,0,0,0-1.72,1.23,13.48,13.48,0,0,0-2.06,2.15c-.59.77-1.15,1.58-1.69,2.42s-1,1.7-1.53,2.58-1,1.78-1.6,2.68c0,.12-.16.18-.37.18s-.25-.12-.52-.37-.4-.43-.4-.55a2.5,2.5,0,0,1,.43-1.11l2-3.47,1.9-3.29,1.57-2.67a17.46,17.46,0,0,0,.92-1.69c.2-.37.35-.55.43-.55a1.78,1.78,0,0,1,.61.31,1,1,0,0,1,.5.86,1.8,1.8,0,0,1-.22.61c-.14.29-.31.59-.49.89l-.52.89-.37.62c-.12.2-.15.3-.06.3a.54.54,0,0,0,.31-.18,20,20,0,0,1,1.5-1.35,21.47,21.47,0,0,1,1.87-1.38,14.6,14.6,0,0,1,1.94-1.08,4.13,4.13,0,0,1,1.69-.43,1.59,1.59,0,0,1,.95.28A.74.74,0,0,1,417.92,178.84Z"/><path d="M424.5,180.13c-.13.21-.23.23-.31.06a1.53,1.53,0,0,0-1.54-.8,3.43,3.43,0,0,0-1.72.5,1.59,1.59,0,0,0-.86,1.47,1.77,1.77,0,0,0,.31,1c.2.33.49.76.86,1.29s.63,1,.92,1.48a3,3,0,0,1,.43,1.53,4.3,4.3,0,0,1-.74,2.62,6,6,0,0,1-1.75,1.62,6.33,6.33,0,0,1-2.06.83,8.23,8.23,0,0,1-1.65.22c-2.5,0-3.88-.84-4.12-2.52L413,189a2.82,2.82,0,0,0,.58-.52q.12,0,.18.24a4.14,4.14,0,0,0,1.17,1.91,2.88,2.88,0,0,0,2,.79,9.15,9.15,0,0,0,1.17-.09,3.31,3.31,0,0,0,1.26-.43,3.24,3.24,0,0,0,1-.95,2.82,2.82,0,0,0,.43-1.66,3.43,3.43,0,0,0-.31-1.47,8.92,8.92,0,0,0-.67-1.23c-.25-.41-.5-.82-.74-1.23a2.54,2.54,0,0,1-.37-1.35,3.1,3.1,0,0,1,.52-1.6,7,7,0,0,1,1.32-1.57,8.58,8.58,0,0,1,1.75-1.19,4.07,4.07,0,0,1,1.88-.5c.65,0,1,.21,1,.62-.12.2-.24.44-.37.7S424.58,179.93,424.5,180.13Z"/><path class="cls-2" d="M124.57,184.13a47,47,0,0,1,9.92,4.91,20,20,0,0,1,7.53,8.33,11.24,11.24,0,0,1,.85,5.8,13.11,13.11,0,0,1-2.11,5.49,26.26,26.26,0,0,1-8.48,7.62A56.47,56.47,0,0,1,122,220.92a84.43,84.43,0,0,1-10.8,2.92A115,115,0,0,1,89,226.05a119,119,0,0,1-22.33-1.88,73.79,73.79,0,0,1-10.94-2.89,52.46,52.46,0,0,1-10.4-4.91,34.21,34.21,0,0,1-4.71-3.58,21.37,21.37,0,0,1-3.94-4.69,14.12,14.12,0,0,1-2-6.07,12,12,0,0,1,1.22-6.29,20.24,20.24,0,0,1,8.32-8.24,42.42,42.42,0,0,1,10.37-4.17l.18.47a53.87,53.87,0,0,0-9.27,5.6c-2.8,2.14-5.25,4.79-6.35,7.74a9,9,0,0,0-.48,4.44,10.21,10.21,0,0,0,1.78,4.13A23.13,23.13,0,0,0,48,212.07a57.42,57.42,0,0,0,9.54,4.28,92.36,92.36,0,0,0,10.23,3A106.57,106.57,0,0,0,89.07,222a110.35,110.35,0,0,0,21.56-1.41,78.42,78.42,0,0,0,10.5-2.45,52.58,52.58,0,0,0,9.9-4.07,24.12,24.12,0,0,0,8.05-6.59,11.19,11.19,0,0,0,2-4.59,9.54,9.54,0,0,0-.52-5c-1.22-3.24-3.83-5.91-6.71-8a46.34,46.34,0,0,0-9.48-5.32Z"/><path class="cls-2" d="M131.4,155.06a4.58,4.58,0,0,1-1.1,2.67,9.22,9.22,0,0,1-2.15,1.89,24.56,24.56,0,0,1-5.12,2.51A62.41,62.41,0,0,1,112,165a120,120,0,0,1-22.72,1.72,126,126,0,0,1-22.72-2.42A62.32,62.32,0,0,1,55.51,161a24.65,24.65,0,0,1-5.21-2.87A9.94,9.94,0,0,1,48,155.9a5.57,5.57,0,0,1-1.14-3.36,5.69,5.69,0,0,1,1.28-3.32,10.67,10.67,0,0,1,2.37-2.16,24.87,24.87,0,0,1,5.36-2.68,61.87,61.87,0,0,1,11.24-2.89,105.17,105.17,0,0,1,11.45-1.25c3.83-.19,7.66-.18,11.48-.06a107,107,0,0,1,22.66,3.34,62.78,62.78,0,0,1,10.82,3.78,24.57,24.57,0,0,1,4.93,2.93,9.68,9.68,0,0,1,2,2.07A4.64,4.64,0,0,1,131.4,155.06Zm-.3,0a4.25,4.25,0,0,0-.91-2.52,8.85,8.85,0,0,0-2-1.93,22.72,22.72,0,0,0-5-2.61,59,59,0,0,0-10.86-2.9,110.74,110.74,0,0,0-11.18-1.36c-3.73-.3-7.48-.48-11.23-.54s-7.49,0-11.23.18a109.06,109.06,0,0,0-11.14,1.07,59.76,59.76,0,0,0-10.79,2.47A22.62,22.62,0,0,0,52,149.18c-1.45.92-2.62,2.19-2.68,3.44s1,2.65,2.39,3.69A22.52,22.52,0,0,0,56.37,159,60,60,0,0,0,67,162.37a124,124,0,0,0,22.35,2.83c3.76.16,7.53.21,11.3.07a111.87,111.87,0,0,0,11.27-.91,58.46,58.46,0,0,0,11-2.51,23.08,23.08,0,0,0,5.08-2.44,9,9,0,0,0,2.08-1.86A4.34,4.34,0,0,0,131.1,155.05Z"/><path class="cls-2" d="M47.91,158.44A36,36,0,0,0,49,170.59,40.13,40.13,0,0,0,54,181.68a45.18,45.18,0,0,0,17.88,15.94A43.31,43.31,0,0,0,83.2,201.4a37.71,37.71,0,0,0,11.85.26A38.51,38.51,0,0,0,116,191.4a50.52,50.52,0,0,0,4.1-4.3,57.75,57.75,0,0,0,3.58-4.78,79.22,79.22,0,0,0,5.89-10.45,51.26,51.26,0,0,1,6.8-11,23.31,23.31,0,0,1,5.07-4.59,15.57,15.57,0,0,1,3.27-1.62,11.23,11.23,0,0,1,3.8-.57,10.33,10.33,0,0,1,6.81,3A15.44,15.44,0,0,1,159,163a14.93,14.93,0,0,1,.9,6.78,8.43,8.43,0,0,1-1.12,3.46,5.93,5.93,0,0,1-2.86,2.51,7.32,7.32,0,0,1-3.57.47,12.75,12.75,0,0,1-3.25-.76,17.66,17.66,0,0,1-3-1.36,8.71,8.71,0,0,1-2.59-2.16,4.4,4.4,0,0,1-1-3.38,3.91,3.91,0,0,1,2.08-2.8,7,7,0,0,1,6.33.28l-.22.48a6.31,6.31,0,0,0-5.61.1,2.76,2.76,0,0,0-1.36,2.09,3.07,3.07,0,0,0,.94,2.3,10.7,10.7,0,0,0,5,2.66c1.85.53,3.87.69,5.29,0a4.52,4.52,0,0,0,2.17-4.09,12.8,12.8,0,0,0-4.31-9.65,6.5,6.5,0,0,0-4.38-1.64A8,8,0,0,0,144,160a21.27,21.27,0,0,0-3.88,3.93A59.06,59.06,0,0,0,134,174.05a73.4,73.4,0,0,1-6.66,10.9,59,59,0,0,1-8.67,9.49A42.24,42.24,0,0,1,95.46,205a41.2,41.2,0,0,1-12.83-.66,45.08,45.08,0,0,1-11.95-4.42,47.32,47.32,0,0,1-18.06-17.37A41.21,41.21,0,0,1,48,170.85a37.1,37.1,0,0,1-.6-12.47Z"/><path class="cls-2" d="M199.41,99a100.24,100.24,0,0,0-24.27,2.92,117.55,117.55,0,0,0-23,8.31,128.19,128.19,0,0,0-20.91,12.71c-1.34,1-2.66,2-4,3.1-10.27,7.19-28,29-29.29,33.22,4.07-2.15,9-5.18,11.17-8.36,4.35-7.64,7.12-12.18,14.69-19.27,2.72-2.52,5.58-4.91,8.54-7.15a126.87,126.87,0,0,1,20.54-12.64,115.85,115.85,0,0,1,22.6-8.4,99.46,99.46,0,0,1,11.73-2.25l.4,0,2.2-.25,1.38-.13,1.18-.1,2.1-.14.38,0,1.92-.07a110.39,110.39,0,0,0-10,6.71c-1.95,1.47-3.85,3-5.8,4.43a27.23,27.23,0,0,1-6.19,3.54,30.8,30.8,0,0,1-6.93,1.77c-2.38.36-4.81.56-7.21.68-1.19,0-2.44,0-3.67.15a8.54,8.54,0,0,0-1.92.34,1.51,1.51,0,0,0-.58.34.72.72,0,0,0-.16.25.66.66,0,0,0,0,.37.75.75,0,0,0,.26.45,2.76,2.76,0,0,0,1,.52,14.12,14.12,0,0,0,3.73.61,15,15,0,0,0,1.64,0,8,8,0,0,1-2.78.87,11,11,0,0,1-2.5,0c-.85-.09-1.69-.27-2.62-.33a5.65,5.65,0,0,0-2.73.55,2.48,2.48,0,0,0-.64.43,1.17,1.17,0,0,0-.27.41.74.74,0,0,0,.07.66,1.35,1.35,0,0,0,.76.49,4.56,4.56,0,0,0,.7.14,15.08,15.08,0,0,0,2.69,0q.78-.07,1.56-.18a8.76,8.76,0,0,1-1.88,1.36,12.45,12.45,0,0,1-3.18,1.15,48.76,48.76,0,0,1-6.88.76,36.4,36.4,0,0,0-6.95,1,17.1,17.1,0,0,0-5.68,2.66c-.22.15-.43.29-.63.44.16-.12.34-.23.51-.35-.15.12-.31.23-.45.35a18.56,18.56,0,0,1,6.35-2.69,40.76,40.76,0,0,1,6.89-.81,47.59,47.59,0,0,0,7-.71,13,13,0,0,0,3.37-1.19,9.69,9.69,0,0,0,2.81-2.24l.64-.74-1,.14c-.85.13-1.71.24-2.56.3a13.36,13.36,0,0,1-2.53,0,3.5,3.5,0,0,1-.58-.11,1.1,1.1,0,0,1-.31-.15.33.33,0,0,1,.08-.11,1.87,1.87,0,0,1,.44-.29,5,5,0,0,1,2.34-.44c.82,0,1.68.24,2.56.34a11.08,11.08,0,0,0,2.7,0,9.71,9.71,0,0,0,4.95-2.12l1.7-1.34-2.09.56a11.53,11.53,0,0,1-3.48.29,13.2,13.2,0,0,1-3.46-.59l-.35-.14a8.27,8.27,0,0,1,1.58-.26c1.19-.1,2.38-.09,3.62-.11,2.46-.11,4.89-.28,7.33-.63a31.65,31.65,0,0,0,7.19-1.78,28.37,28.37,0,0,0,6.48-3.63c2-1.44,3.89-3,5.84-4.39a112.54,112.54,0,0,1,12.19-7.87L202,99Z"/><path class="cls-2" d="M310.54,219.81s0,.14,0,.48c0,.68-.07,1.34-.07,2,0,.07,0,.21,0,.43s0,.48,0,.79v.16c0,.15,0,.23-.14.23s-.17-.09-.24-.27a1.82,1.82,0,0,0-.5-.76,4.46,4.46,0,0,1-3.06,1.12,5.66,5.66,0,0,1-4.3-1.82,6.37,6.37,0,0,1-1.71-4.56,6.6,6.6,0,0,1,1.57-4.54,5.16,5.16,0,0,1,4-1.76,5.57,5.57,0,0,1,1.44.15,6.36,6.36,0,0,1,1.33.61,1.29,1.29,0,0,0,.58.23c.11,0,.21-.09.31-.28s.27-.49.37-.49a.12.12,0,0,1,.14.14,1,1,0,0,1,0,.23,16.93,16.93,0,0,0-.19,3.18.71.71,0,0,1-.06.39.2.2,0,0,1-.14.05c-.11,0-.19-.11-.23-.34a6,6,0,0,0-.65-2.1,3,3,0,0,0-2.72-1.41,2.84,2.84,0,0,0-2.26.95,9.09,9.09,0,0,0-.27,9.6,3.42,3.42,0,0,0,2.86,1.41,3.2,3.2,0,0,0,1.68-.45,3,3,0,0,0,1.17-1.23,7,7,0,0,0,.65-2c.05-.28.13-.42.23-.42S310.54,219.64,310.54,219.81Z"/><path class="cls-2" d="M318.9,223c0,.2-.21.41-.62.63a2.7,2.7,0,0,1-1.21.32,1.14,1.14,0,0,1-1.27-1.25,2.18,2.18,0,0,1-2.07,1.31,1.79,1.79,0,0,1-1.25-.45,1.5,1.5,0,0,1-.49-1.16,2.58,2.58,0,0,1,1.73-2.3,9.19,9.19,0,0,1,2.07-.56v-.45a8.08,8.08,0,0,0-.16-2.05,1.2,1.2,0,0,0-1.27-.9,1.57,1.57,0,0,0-1,.34,1,1,0,0,0-.41.85c0,.09.07.14.21.14a.49.49,0,0,1,.39.21.72.72,0,0,1,.18.48.68.68,0,0,1-.77.77.9.9,0,0,1-.67-.27,1,1,0,0,1-.26-.7,1.9,1.9,0,0,1,.65-1.43,2.9,2.9,0,0,1,2-.65c1.29,0,2.09.35,2.38,1.06a5.07,5.07,0,0,1,.16,1.61v3.3c0,.54,0,.86,0,.95.06.43.23.64.51.64a1.09,1.09,0,0,0,.82-.35c.11-.13.2-.2.26-.2S318.9,222.89,318.9,223Zm-3.11-1.87V219.8a4.47,4.47,0,0,0-1.87.78,1.63,1.63,0,0,0-.57,1.3,1.36,1.36,0,0,0,.32.93,1.06,1.06,0,0,0,.81.36,1.34,1.34,0,0,0,1.2-.85A3.8,3.8,0,0,0,315.79,221.09Z"/><path class="cls-2" d="M324.71,212.64a.86.86,0,0,1-.22.61.72.72,0,0,1-.57.24.83.83,0,0,1-.57-.22.69.69,0,0,1-.23-.53,1.25,1.25,0,0,1,.23-.62.26.26,0,0,0,.06-.15c0-.28-.2-.41-.58-.41-.66,0-1.09.42-1.3,1.27a12.19,12.19,0,0,0-.16,2.35v.87h1.16c.23,0,.35,0,.35.15s-.16.15-.46.15h-1.05v6.93c0,.16.17.24.49.24.5,0,.78,0,.82.08a.1.1,0,0,1,0,.07q0,.12-.21.12l-.18,0-1.45,0h-1.93c-.21,0-.31,0-.31-.12s.08-.15.25-.15a2.3,2.3,0,0,0,1-.1.14.14,0,0,0,0-.11l0-.23v-6.71c-.44,0-.69,0-.76,0a.13.13,0,0,1-.11-.14c0-.11.11-.16.32-.16h.57a7.6,7.6,0,0,1,.6-3.24,2.61,2.61,0,0,1,2.44-1.52,2.1,2.1,0,0,1,1.27.37A1.17,1.17,0,0,1,324.71,212.64Z"/><path class="cls-2" d="M330.14,221.83a1.62,1.62,0,0,1-.27.63,4.21,4.21,0,0,1-.56.73,2.7,2.7,0,0,1-2,.78,3.5,3.5,0,0,1-2.66-1.15,4,4,0,0,1-1.07-2.85,4.4,4.4,0,0,1,1-2.95,3.22,3.22,0,0,1,2.54-1.18,3.07,3.07,0,0,1,2.1.73,2.51,2.51,0,0,1,.9,1.88,9,9,0,0,1-1.5.07h-1.23l-2.12.06a7.09,7.09,0,0,0-.09,1.1,4.64,4.64,0,0,0,.68,2.74,2.2,2.2,0,0,0,1.91,1,1.81,1.81,0,0,0,1.14-.32,3.86,3.86,0,0,0,.91-1.21.23.23,0,0,1,.2-.15A.12.12,0,0,1,330.14,221.83Zm-1.54-3.61c0-1.41-.55-2.12-1.52-2.12s-1.55.71-1.78,2.12Z"/><path class="cls-2" d="M342.58,217.53a2.55,2.55,0,1,1-5.09,0,2.46,2.46,0,0,1,.74-1.81,2.52,2.52,0,0,1,1.84-.73,2.4,2.4,0,0,1,1.77.75A2.48,2.48,0,0,1,342.58,217.53Z"/><path class="cls-2" d="M358.7,220.54a2.85,2.85,0,0,1-1.64,2.67,5.88,5.88,0,0,1-2.28.53h-4.56q-.3,0-.3-.15c0-.1.18-.15.55-.15s.67,0,.75-.13a1.67,1.67,0,0,0,.11-.8V213a3,3,0,0,0-.07-.91c-.08-.14-.38-.21-.9-.23q-.48,0-.48-.18c0-.11.15-.17.44-.17h.22a1.14,1.14,0,0,0,.35.05h3.44a5.41,5.41,0,0,1,2.85.64,2.36,2.36,0,0,1,1.1,2.1,2.47,2.47,0,0,1-.9,2,4.67,4.67,0,0,1-2.53,1v.1a5.49,5.49,0,0,1,2.51.67A2.84,2.84,0,0,1,358.7,220.54Zm-2.37-6.1a2.69,2.69,0,0,0-.77-2.26,2.81,2.81,0,0,0-1.54-.3c-.2,0-.52,0-.94.05v5.13h.16l1,0a2,2,0,0,0,1.57-.72A2.84,2.84,0,0,0,356.33,214.44Zm.51,5.9a2.51,2.51,0,0,0-1.8-2.75,7.7,7.7,0,0,0-2-.16v5.26c0,.35,0,.54.11.59a2.28,2.28,0,0,0,1,.12,2.52,2.52,0,0,0,1.94-.78A3.25,3.25,0,0,0,356.84,220.34Z"/><path class="cls-2" d="M367.47,219.94a4.11,4.11,0,0,1-1.05,2.87,3.35,3.35,0,0,1-2.59,1.16,3.53,3.53,0,0,1-2.69-1.16,4,4,0,0,1-1.08-2.87,4.24,4.24,0,0,1,1.05-2.94,3.4,3.4,0,0,1,2.63-1.16A3.47,3.47,0,0,1,366.4,217,4.21,4.21,0,0,1,367.47,219.94Zm-1.61,0a6.26,6.26,0,0,0-.6-3,1.57,1.57,0,0,0-1.49-.8,1.7,1.7,0,0,0-1.54,1,5.92,5.92,0,0,0-.56,2.82,5.52,5.52,0,0,0,.59,2.78,1.84,1.84,0,0,0,1.66,1,1.33,1.33,0,0,0,1.2-.62A5.94,5.94,0,0,0,365.86,219.92Z"/><path class="cls-2" d="M376,219.94a4.15,4.15,0,0,1-1,2.87,3.37,3.37,0,0,1-2.6,1.16,3.54,3.54,0,0,1-2.69-1.16,4.08,4.08,0,0,1-1.07-2.87A4.24,4.24,0,0,1,369.6,217a3.36,3.36,0,0,1,2.62-1.16,3.45,3.45,0,0,1,2.66,1.17A4.21,4.21,0,0,1,376,219.94Zm-1.61,0a6.26,6.26,0,0,0-.6-3,1.56,1.56,0,0,0-1.48-.8,1.71,1.71,0,0,0-1.55,1,5.92,5.92,0,0,0-.56,2.82,5.41,5.41,0,0,0,.6,2.78,1.82,1.82,0,0,0,1.65,1,1.33,1.33,0,0,0,1.2-.62A5.94,5.94,0,0,0,374.34,219.92Z"/><path class="cls-2" d="M385.48,223.63q0,.12-.66.12h-.95c-.6,0-1,0-1.24,0l-.7,0c-.31,0-.54,0-.69,0s-.16,0-.16-.12.11-.14.33-.14c.57,0,.85-.09.85-.28a26.56,26.56,0,0,0-3-3.56v3.59c0,.18.18.26.5.25h.49c.15,0,.23,0,.23.12s-.13.14-.39.14h-3q-.42,0-.42-.15c0-.06,0-.1.08-.11l.61,0c.28,0,.43-.07.44-.19a7.07,7.07,0,0,0,0-.92v-8.63c0-.93,0-1.41,0-1.44s-.2-.13-.52-.13h-.46c-.13,0-.19,0-.19-.13s.13-.13.41-.13a3.88,3.88,0,0,0,1.76-.52.85.85,0,0,1,.29-.12c.13,0,.19.49.19,1.47v6.52a17.62,17.62,0,0,0,2.87-2.81c0-.07-.24-.11-.69-.11h-.55c-.21,0-.32,0-.32-.14s.18-.16.55-.16h2.47c.43,0,.67,0,.74,0a.11.11,0,0,1,.11.12c0,.09-.28.13-.83.15a2,2,0,0,0-.72.09,1.7,1.7,0,0,0-.41.31l-2.21,2.15q2.46,2.68,3.48,4a2.29,2.29,0,0,0,.67.62,2.49,2.49,0,0,0,.87.07C385.42,223.49,385.48,223.54,385.48,223.63Z"/><path class="cls-2" d="M390.71,221.5a2.33,2.33,0,0,1-.75,1.75,2.46,2.46,0,0,1-1.78.72,3.39,3.39,0,0,1-1.46-.43.86.86,0,0,0-.4-.12c-.16,0-.29.11-.37.33s-.11.22-.19.22-.12-.05-.12-.14v-2.37c0-.13,0-.2.12-.2s.15.07.16.2a2.62,2.62,0,0,0,.46,1.28,2.25,2.25,0,0,0,1.89.93,1.4,1.4,0,0,0,1-.38,1.28,1.28,0,0,0,.39-1,1.42,1.42,0,0,0-.44-1.1,1.64,1.64,0,0,0-.45-.32c-.13-.07-.53-.23-1.19-.47-1.31-.5-2-1.24-2-2.24a2.28,2.28,0,0,1,.66-1.66,2.24,2.24,0,0,1,1.65-.67,4.11,4.11,0,0,1,1.05.21,1.32,1.32,0,0,0,.32,0,.42.42,0,0,0,.45-.35c0-.12.09-.18.16-.18s.12.05.12.14v.85a10.42,10.42,0,0,0,.09,1.36v0a.12.12,0,0,1-.14.14c-.07,0-.16-.18-.26-.54a2.1,2.1,0,0,0-.68-1,1.76,1.76,0,0,0-1.13-.39,1.37,1.37,0,0,0-1,.37,1.24,1.24,0,0,0-.38.94c0,.59.39,1,1.18,1.34a8.37,8.37,0,0,1,2.33,1.21A2,2,0,0,1,390.71,221.5Z"/><path class="cls-2" d="M396.52,222.71c0,.11-.14.3-.44.57a2.58,2.58,0,0,1-1.8.69,2,2,0,0,1-1.47-.5c-.19-.18-.28-.74-.28-1.65v-5.26a.19.19,0,0,0-.2-.19h-.67c-.26,0-.39,0-.39-.13s.07-.13.2-.14a2.73,2.73,0,0,0,2.14-1.36.33.33,0,0,1,.26-.16c.09,0,.13,0,.13.12v.38a3.72,3.72,0,0,0,.07.95,2.89,2.89,0,0,0,.53,0,5.85,5.85,0,0,0,1.29-.09l.12,0c.09,0,.14,0,.14.15s-.48.26-1.43.26H394v3.27a23,23,0,0,0,.12,3.1.73.73,0,0,0,.81.63,2.06,2.06,0,0,0,1.31-.66.21.21,0,0,1,.16-.09Q396.52,222.62,396.52,222.71Z"/><path class="cls-2" d="M404.14,219.94a4.15,4.15,0,0,1-1,2.87,3.37,3.37,0,0,1-2.6,1.16,3.54,3.54,0,0,1-2.69-1.16,4,4,0,0,1-1.07-2.87,4.24,4.24,0,0,1,1.05-2.94,3.36,3.36,0,0,1,2.62-1.16,3.45,3.45,0,0,1,2.66,1.17A4.21,4.21,0,0,1,404.14,219.94Zm-1.61,0a6.26,6.26,0,0,0-.6-3,1.56,1.56,0,0,0-1.48-.8,1.71,1.71,0,0,0-1.55,1,5.92,5.92,0,0,0-.56,2.82,5.41,5.41,0,0,0,.6,2.78,1.82,1.82,0,0,0,1.65,1,1.33,1.33,0,0,0,1.2-.62A5.85,5.85,0,0,0,402.53,219.92Z"/><path class="cls-2" d="M410.63,217.07a1,1,0,0,1-.25.68.85.85,0,0,1-.64.26.75.75,0,0,1-.53-.19.59.59,0,0,1-.21-.46.6.6,0,0,1,.16-.43c.11-.12.16-.2.16-.25s-.13-.26-.39-.26a1,1,0,0,0-.85.62,6,6,0,0,0-.4,2.67v3.48c0,.14.05.23.15.26a4,4,0,0,0,.91.07c.13,0,.19.08.19.15s-.08.12-.23.12h-3.43c-.19,0-.28,0-.28-.11s.08-.1.23-.1h.25c.4,0,.63-.05.7-.14a2.47,2.47,0,0,0,0-.66v-4.89c0-.65-.1-1-.29-1.12a2.13,2.13,0,0,0-.93-.17c-.14,0-.21,0-.21-.13s.06-.12.17-.12h.13l.53,0,.23,0a3.45,3.45,0,0,0,1.45-.37l.23-.11.14,0a4.88,4.88,0,0,1,.07.85v.35a1.76,1.76,0,0,1,1.59-1.2,1.33,1.33,0,0,1,.94.35A1.13,1.13,0,0,1,410.63,217.07Z"/><path class="cls-2" d="M417.79,221.83a1.7,1.7,0,0,1-.28.63,3.77,3.77,0,0,1-.56.73,2.69,2.69,0,0,1-2,.78,3.52,3.52,0,0,1-2.66-1.15,4.05,4.05,0,0,1-1.07-2.85,4.36,4.36,0,0,1,1-2.95,3.2,3.2,0,0,1,2.54-1.18,3.11,3.11,0,0,1,2.1.73,2.55,2.55,0,0,1,.9,1.88,9.15,9.15,0,0,1-1.5.07H415l-2.12.06a7.09,7.09,0,0,0-.09,1.1,4.72,4.72,0,0,0,.68,2.74,2.22,2.22,0,0,0,1.92,1,1.78,1.78,0,0,0,1.13-.32,3.85,3.85,0,0,0,.92-1.21c.05-.1.11-.15.19-.15S417.79,221.75,417.79,221.83Zm-1.54-3.61c-.05-1.41-.56-2.12-1.52-2.12s-1.55.71-1.79,2.12Z"/></g></g></svg>