<svg id="Layer_1" data-name="Layer 1" xmlns="http://www.w3.org/2000/svg" viewBox="0 0 178 178"><defs><style>.cls-1{isolation:isolate;}</style></defs><polygon class="cls-1" points="40.05 65.64 40.05 108.7 66.27 82.75 40.05 65.64"/><polygon class="cls-1" points="76.92 77.76 88.63 85.4 99.1 78.56 99.11 78.56 125.39 61.41 51.86 61.41 76.91 77.76 76.92 77.76"/><path class="cls-1" d="M96.67,92.1l-5.31,3.46c-.12.08-.25.14-.37.21a5.15,5.15,0,0,1-2.36.61A4.76,4.76,0,0,1,87,96.07a4.71,4.71,0,0,1-1-.51l-5.26-3.43-5.8-3.79L47.27,115.69h82.31l-28.3-26.6Z"/><path class="cls-1" d="M89,0a89,89,0,1,0,89,89A89,89,0,0,0,89,0Zm58.2,125.69H30.06V51.41H147.2Z"/><polygon class="cls-1" points="137.2 109.13 137.2 65.64 109.9 83.46 137.2 109.13"/></svg>