<?xml version="1.0" encoding="utf-8"?>
<!-- Generator: Adobe Illustrator 24.3.0, SVG Export Plug-In . SVG Version: 6.00 Build 0)  -->
<svg version="1.1" id="Layer_1" xmlns="http://www.w3.org/2000/svg" xmlns:xlink="http://www.w3.org/1999/xlink" x="0px" y="0px"
	 viewBox="0 0 150.3 150.3" style="enable-background:new 0 0 150.3 150.3;" xml:space="preserve">
<style type="text/css">
	.st0{opacity:0.68;fill:#EDEDED;enable-background:new    ;}
	.st1{fill:#1A1A1A;}
</style>
<g id="Layer_2_1_">
	<g id="Layer_1-2">
		<circle class="st0" cx="75.1" cy="75.1" r="75.1"/>
		<path class="st1" d="M73.5,39.7l-49,49.1c-0.9,0.8-0.9,2.2,0,3.1c0,0,0,0,0,0l8.9,8.7c0.9,0.8,2.2,0.8,3.1,0l37-36.5
			c0.9-0.8,2.2-0.8,3.1,0l37,36.5c0.9,0.8,2.2,0.8,3.1,0l8.9-8.7c0.9-0.8,0.9-2.2,0-3.1c0,0,0,0,0,0l-49-49
			C75.8,38.9,74.4,38.9,73.5,39.7z"/>
	</g>
</g>
</svg>
