<svg xmlns="http://www.w3.org/2000/svg" viewBox="0 0 36.42 36.42"><defs><style>.cls-1,.cls-2{fill:#fff;}.cls-1{opacity:0.19;}</style></defs><g id="Layer_2" data-name="Layer 2"><g id="Layer_1-2" data-name="Layer 1"><circle class="cls-1" cx="18.21" cy="18.21" r="18.21"/><path class="cls-2" d="M18.76,18.21l7.67-7.67a.39.39,0,1,0-.55-.55l-7.67,7.67L10.54,10A.39.39,0,0,0,10,10a.38.38,0,0,0,0,.55l7.67,7.67L10,25.88a.38.38,0,0,0,0,.55.35.35,0,0,0,.27.11.38.38,0,0,0,.28-.11l7.67-7.67,7.67,7.67a.35.35,0,0,0,.27.11.38.38,0,0,0,.28-.11.39.39,0,0,0,0-.55Z"/></g></g></svg>