<svg xmlns="http://www.w3.org/2000/svg" viewBox="0 0 440.19 179.73"><defs><style>.cls-1{fill:#fff;}.cls-2{fill:none;stroke:#47372b;stroke-miterlimit:10;stroke-width:0.75px;}.cls-3{fill:#f0ebde;}.cls-4{font-size:24.58px;font-family:Zapfino;}.cls-5{letter-spacing:-0.09em;}.cls-6{letter-spacing:-0.02em;}.cls-7{letter-spacing:0em;}.cls-8,.cls-9{fill:#47372b;}.cls-9{font-size:15px;font-family:BodoniSvtyTwoITCTT-Book, "Bodoni 72";}</style></defs><g id="Layer_2" data-name="Layer 2"><g id="Layer_1-2" data-name="Layer 1"><path class="cls-1" d="M220.1,179.36c-58.18,0-112.92-9-154.15-25.41C23.66,137.14.38,114.39.38,89.87S23.66,42.59,66,25.79C107.18,9.4,161.92.38,220.1.38S333,9.4,374.25,25.79c42.28,16.8,65.57,39.56,65.57,64.08S416.53,137.14,374.25,154C333,170.33,278.27,179.36,220.1,179.36Z"/><path class="cls-2" d="M220.1,179.36c-58.18,0-112.92-9-154.15-25.41C23.66,137.14.38,114.39.38,89.87S23.66,42.59,66,25.79C107.18,9.4,161.92.38,220.1.38S333,9.4,374.25,25.79c42.28,16.8,65.57,39.56,65.57,64.08S416.53,137.14,374.25,154C333,170.33,278.27,179.36,220.1,179.36Z"/><ellipse class="cls-3" cx="220.1" cy="89.87" rx="216.12" ry="85.89"/><ellipse class="cls-2" cx="220.1" cy="89.87" rx="216.12" ry="85.89"/><text class="cls-4" transform="translate(150.65 100.36)">Budding <tspan class="cls-5" x="133.2" y="0">W</tspan><tspan x="177.38" y="0">rite</tspan><tspan class="cls-6" x="225.24" y="0">r</tspan><tspan class="cls-7" x="236.61" y="0">s</tspan></text><path class="cls-8" d="M111.42,94.46a34,34,0,0,1,7.07,3.5,14.22,14.22,0,0,1,5.36,5.94,8,8,0,0,1,.6,4.13,9.12,9.12,0,0,1-1.5,3.91,18.76,18.76,0,0,1-6,5.43,39.21,39.21,0,0,1-7.3,3.3,59,59,0,0,1-7.69,2.08,81.61,81.61,0,0,1-15.82,1.58A86,86,0,0,1,70.2,123a53.69,53.69,0,0,1-7.8-2.06,37.86,37.86,0,0,1-7.4-3.5,24,24,0,0,1-3.36-2.55,15.19,15.19,0,0,1-2.8-3.34,10.09,10.09,0,0,1-1.46-4.33,8.5,8.5,0,0,1,.88-4.47,14.3,14.3,0,0,1,5.92-5.87,29.71,29.71,0,0,1,7.39-3l.12.33a38.6,38.6,0,0,0-6.6,4,13.22,13.22,0,0,0-4.52,5.51,6.31,6.31,0,0,0-.34,3.17,7,7,0,0,0,1.27,2.93,16.43,16.43,0,0,0,5.35,4.54,40.72,40.72,0,0,0,6.79,3,64.15,64.15,0,0,0,7.29,2.11,76.59,76.59,0,0,0,15.2,2,79.72,79.72,0,0,0,15.36-1,57.58,57.58,0,0,0,7.48-1.74,37.23,37.23,0,0,0,7-2.91,17.1,17.1,0,0,0,5.74-4.69,8,8,0,0,0,1.43-3.27,6.85,6.85,0,0,0-.36-3.55,13.44,13.44,0,0,0-4.78-5.72,33.62,33.62,0,0,0-6.76-3.79Z"/><path class="cls-8" d="M116.29,73.76a3.24,3.24,0,0,1-.79,1.9A6.57,6.57,0,0,1,114,77a17.29,17.29,0,0,1-3.64,1.78,44.41,44.41,0,0,1-7.85,2,84.37,84.37,0,0,1-16.19,1.22,89.07,89.07,0,0,1-16.18-1.72A44.55,44.55,0,0,1,62.22,78a17.91,17.91,0,0,1-3.7-2,7.61,7.61,0,0,1-1.62-1.59A3.71,3.71,0,0,1,57,69.6a7.4,7.4,0,0,1,1.69-1.54,18.12,18.12,0,0,1,3.81-1.91,44.47,44.47,0,0,1,8-2.06,74.91,74.91,0,0,1,8.15-.89c2.73-.13,5.46-.13,8.18,0A75.89,75.89,0,0,1,103,65.54a44.76,44.76,0,0,1,7.7,2.69,17.78,17.78,0,0,1,3.51,2.09,6.32,6.32,0,0,1,1.44,1.48A3.33,3.33,0,0,1,116.29,73.76Zm-.22,0a3.06,3.06,0,0,0-.64-1.8A6.37,6.37,0,0,0,114,70.58a16.45,16.45,0,0,0-3.52-1.86,42.06,42.06,0,0,0-7.74-2.06,79,79,0,0,0-8-1c-2.66-.22-5.33-.34-8-.39s-5.34,0-8,.13-5.31.36-7.94.76A42.2,42.2,0,0,0,63.17,68a15.8,15.8,0,0,0-3.45,1.61A3.61,3.61,0,0,0,57.81,72a3.6,3.6,0,0,0,1.7,2.63,16.48,16.48,0,0,0,3.33,1.91A43.07,43.07,0,0,0,70.41,79a88.33,88.33,0,0,0,15.91,2c2.68.12,5.37.15,8.05,0a77.32,77.32,0,0,0,8-.65,42,42,0,0,0,7.84-1.78,17,17,0,0,0,3.62-1.74,6.47,6.47,0,0,0,1.48-1.33A3,3,0,0,0,116.07,73.75Z"/><path class="cls-8" d="M56.81,76.17a26,26,0,0,0,.81,8.65,28.72,28.72,0,0,0,3.51,7.9,32.18,32.18,0,0,0,12.74,11.35,30.75,30.75,0,0,0,8.08,2.7,26.87,26.87,0,0,0,8.44.18,27.34,27.34,0,0,0,14.9-7.31,33.91,33.91,0,0,0,2.93-3.06c.89-1.1,1.76-2.22,2.55-3.4A57.72,57.72,0,0,0,115,85.74a36.13,36.13,0,0,1,4.85-7.84,16.26,16.26,0,0,1,3.61-3.28,10.51,10.51,0,0,1,2.33-1.14,7.86,7.86,0,0,1,2.7-.41,7.32,7.32,0,0,1,4.85,2.15A11.05,11.05,0,0,1,136,79.39a10.66,10.66,0,0,1,.64,4.83,6.29,6.29,0,0,1-.8,2.47,4.29,4.29,0,0,1-2,1.79,5.25,5.25,0,0,1-2.54.33,9.24,9.24,0,0,1-2.32-.54,13.36,13.36,0,0,1-2.11-1,6.45,6.45,0,0,1-1.85-1.54,3.19,3.19,0,0,1-.74-2.41,2.78,2.78,0,0,1,1.48-2,5,5,0,0,1,4.51.2l-.15.34a4.52,4.52,0,0,0-4,.07,2,2,0,0,0-1,1.49,2.24,2.24,0,0,0,.67,1.64A7.6,7.6,0,0,0,129.3,87a5.4,5.4,0,0,0,3.77,0,3.21,3.21,0,0,0,1.54-2.91,9.08,9.08,0,0,0-3.07-6.88A4.63,4.63,0,0,0,128.43,76a5.63,5.63,0,0,0-3.18,1.28,14.66,14.66,0,0,0-2.76,2.8,41.87,41.87,0,0,0-4.34,7.19,51.88,51.88,0,0,1-4.74,7.77,41.66,41.66,0,0,1-6.18,6.76,30,30,0,0,1-16.55,7.49,29.13,29.13,0,0,1-9.13-.47A32.09,32.09,0,0,1,73,105.68,33.67,33.67,0,0,1,60.17,93.31,29.42,29.42,0,0,1,56.86,85a26.21,26.21,0,0,1-.42-8.87Z"/><path class="cls-8" d="M164.73,33.83a71.44,71.44,0,0,0-17.29,2.07,84.67,84.67,0,0,0-16.39,5.92,92.32,92.32,0,0,0-14.89,9.06c-1,.71-1.89,1.45-2.82,2.2-7.31,5.13-20,20.67-20.86,23.67,2.9-1.53,6.44-3.69,8-6,3.11-5.44,5.08-8.67,10.47-13.72A76,76,0,0,1,117,52a90.33,90.33,0,0,1,14.62-9,83.31,83.31,0,0,1,16.1-6,69.64,69.64,0,0,1,8.36-1.6l.29,0,1.56-.18,1-.09.84-.07,1.5-.1h.27c.45,0,.91,0,1.37-.06a77.69,77.69,0,0,0-7.12,4.79c-1.4,1-2.75,2.14-4.13,3.15a19.56,19.56,0,0,1-4.41,2.52,22.55,22.55,0,0,1-4.94,1.27c-1.7.25-3.43.39-5.14.48-.84,0-1.74,0-2.61.1a6.41,6.41,0,0,0-1.37.25,1,1,0,0,0-.41.24.46.46,0,0,0-.12.17.63.63,0,0,0,0,.27.58.58,0,0,0,.19.32,2.08,2.08,0,0,0,.7.37,10.13,10.13,0,0,0,2.65.44,11.42,11.42,0,0,0,1.17,0,5.74,5.74,0,0,1-2,.62,7.66,7.66,0,0,1-1.79,0c-.6-.06-1.2-.19-1.86-.23a4.13,4.13,0,0,0-1.95.39,1.82,1.82,0,0,0-.45.31.82.82,0,0,0-.2.29.53.53,0,0,0,0,.47.94.94,0,0,0,.54.35,3.28,3.28,0,0,0,.51.1,10.14,10.14,0,0,0,1.91,0q.56,0,1.11-.12a6.62,6.62,0,0,1-1.33,1,8.34,8.34,0,0,1-2.27.82,33.08,33.08,0,0,1-4.91.54,25.83,25.83,0,0,0-4.94.72,12.14,12.14,0,0,0-4.05,1.9c-.16.1-.3.2-.45.31l.36-.25-.32.24a13.51,13.51,0,0,1,4.53-1.91,28.64,28.64,0,0,1,4.9-.58,32.45,32.45,0,0,0,5-.5,9,9,0,0,0,2.4-.85,6.77,6.77,0,0,0,2-1.6l.45-.52-.69.1c-.61.09-1.22.17-1.83.21a9,9,0,0,1-1.8,0,1.86,1.86,0,0,1-.41-.08.49.49,0,0,1-.22-.11l.06-.07a1.2,1.2,0,0,1,.31-.21,3.51,3.51,0,0,1,1.67-.31c.58,0,1.2.17,1.82.24a8.29,8.29,0,0,0,1.93,0,7,7,0,0,0,3.52-1.51l1.21-1-1.49.4a8.2,8.2,0,0,1-2.48.21,9.6,9.6,0,0,1-2.46-.42l-.25-.1a5.56,5.56,0,0,1,1.13-.18c.85-.08,1.69-.07,2.57-.09,1.76-.07,3.49-.2,5.23-.44a23.53,23.53,0,0,0,5.12-1.27,20.45,20.45,0,0,0,4.61-2.59c1.42-1,2.78-2.1,4.17-3.12A78.36,78.36,0,0,1,165,34.73l1.6-.9Z"/><text class="cls-9" transform="translate(170.51 151.8)"><tspan xml:space="preserve">Cafe • Bookstore  </tspan></text></g></g></svg>