<svg xmlns="http://www.w3.org/2000/svg" viewBox="0 0 349.71 178.55"><defs><style>.cls-1{fill:#2dc117;}.cls-2{fill:#ffc627;}.cls-3{fill:#f2c94c;}.cls-4{fill:none;}.cls-4,.cls-5{stroke:#000;stroke-miterlimit:10;stroke-width:0.25px;}</style></defs><g id="Layer_2" data-name="Layer 2"><g id="Layer_1-2" data-name="Layer 1"><path d="M4,65.64H4L.89,68.16,0,67.05l4.2-3.43H5.42v17H4Z"/><path d="M271.82,15.6l6.38-6.74c.29-.29.58-.6.86-.93a8.45,8.45,0,0,0,.78-1,5.52,5.52,0,0,0,.57-1.14,3.9,3.9,0,0,0,.21-1.3,2.92,2.92,0,0,0-1-2.32,3.53,3.53,0,0,0-2.42-.84,3.35,3.35,0,0,0-2.23.76,3.56,3.56,0,0,0-1.18,2l-1.68-.17A4.53,4.53,0,0,1,274,1a5.71,5.71,0,0,1,3.36-1,5.77,5.77,0,0,1,1.87.3,4.7,4.7,0,0,1,1.56.85,4,4,0,0,1,1.47,3.19,5.4,5.4,0,0,1-.3,1.83,7.86,7.86,0,0,1-.79,1.59A10.29,10.29,0,0,1,280,9.19c-.43.45-.85.9-1.29,1.35L273.4,16h8.93v1.3H271.82Z"/><path d="M205.87,174.71a4.39,4.39,0,0,0,1.3,1.89,3.56,3.56,0,0,0,2.27.66,4.47,4.47,0,0,0,1.66-.29,3.35,3.35,0,0,0,1.19-.79A3.42,3.42,0,0,0,213,175a4.27,4.27,0,0,0,.24-1.44,3.17,3.17,0,0,0-.39-1.61,3.36,3.36,0,0,0-1-1.09,4.63,4.63,0,0,0-1.44-.61,6.89,6.89,0,0,0-1.62-.19h-.63v-1.44h.72a5.35,5.35,0,0,0,1.36-.18,3.7,3.7,0,0,0,1.22-.57,3,3,0,0,0,.88-1,3,3,0,0,0,.33-1.47,3.06,3.06,0,0,0-.85-2.24,3,3,0,0,0-2.29-.88,3.45,3.45,0,0,0-1.9.54,3.77,3.77,0,0,0-1.32,1.45l-1.36-.77a4.3,4.3,0,0,1,1.9-1.92,6,6,0,0,1,2.68-.6,6,6,0,0,1,1.82.28,4.46,4.46,0,0,1,1.52.82,3.83,3.83,0,0,1,1,1.35,4.76,4.76,0,0,1,.37,1.92,4.11,4.11,0,0,1-.77,2.46,3.93,3.93,0,0,1-2.26,1.48v0a4.43,4.43,0,0,1,1.48.54,4.48,4.48,0,0,1,1.14,1,4.13,4.13,0,0,1,.74,1.29,4.38,4.38,0,0,1,.27,1.54,5.46,5.46,0,0,1-.33,1.9,4.1,4.1,0,0,1-1,1.54,4.82,4.82,0,0,1-1.64,1,6.5,6.5,0,0,1-2.31.38,6.24,6.24,0,0,1-3.25-.8,4.87,4.87,0,0,1-2-2.53Z"/><path d="M104.42,124.59a6.41,6.41,0,0,1-2.14-.36,3.87,3.87,0,0,1-1.53-.92l.52-.84a3.47,3.47,0,0,0,1.4.88,5.31,5.31,0,0,0,1.85.33,3.91,3.91,0,0,0,2.15-.52,1.65,1.65,0,0,0,.82-1.47,1.13,1.13,0,0,0-.3-.82,2.25,2.25,0,0,0-.77-.51,10.26,10.26,0,0,0-1.25-.43,14.77,14.77,0,0,1-1.53-.52,2.72,2.72,0,0,1-1-.75,2,2,0,0,1-.4-1.3,2.67,2.67,0,0,1,.5-1.62,3.28,3.28,0,0,1,1.43-1,5.59,5.59,0,0,1,2.11-.38,6.51,6.51,0,0,1,1.73.23,4.21,4.21,0,0,1,1.4.64L109,116a3.86,3.86,0,0,0-1.26-.6,4.89,4.89,0,0,0-1.49-.22,3.68,3.68,0,0,0-2.13.55,1.71,1.71,0,0,0-.81,1.49,1.19,1.19,0,0,0,.31.85,2.5,2.5,0,0,0,.78.53,12.86,12.86,0,0,0,1.28.42,11.88,11.88,0,0,1,1.51.54,2.5,2.5,0,0,1,1,.72,1.81,1.81,0,0,1,.41,1.23,2.59,2.59,0,0,1-.54,1.64,3.14,3.14,0,0,1-1.46,1A5.8,5.8,0,0,1,104.42,124.59Zm7.37-2.38a3.32,3.32,0,0,0-.06.48c0,.67.36,1,1.1,1a1.92,1.92,0,0,0,1.17-.39l.24.78a2.71,2.71,0,0,1-1.69.49,1.93,1.93,0,0,1-1.36-.46,1.69,1.69,0,0,1-.49-1.27,2.84,2.84,0,0,1,.06-.6l.88-4.47H110.3l.16-.87h1.35l.34-1.66h1l-.33,1.66h2.31l-.17.87h-2.31Zm12.4-5.3-1.52,7.6h-1l.24-1.2a3.81,3.81,0,0,1-1.3.94,4.07,4.07,0,0,1-1.66.33,3.72,3.72,0,0,1-1.72-.39,2.76,2.76,0,0,1-1.16-1.11,3.42,3.42,0,0,1-.42-1.72,4.75,4.75,0,0,1,.55-2.31,4,4,0,0,1,1.54-1.6,4.15,4.15,0,0,1,2.2-.6,3.55,3.55,0,0,1,1.82.44,2.41,2.41,0,0,1,1.06,1.21l.32-1.59Zm-5,6.76a3.11,3.11,0,0,0,2.86-1.72,3.86,3.86,0,0,0,.43-1.83,2.29,2.29,0,0,0-.66-1.74,2.54,2.54,0,0,0-1.84-.63,3.18,3.18,0,0,0-1.69.46,3.27,3.27,0,0,0-1.18,1.29,3.85,3.85,0,0,0-.42,1.82,2.3,2.3,0,0,0,.65,1.73A2.62,2.62,0,0,0,119.19,123.67Zm8.56-5.37a3.16,3.16,0,0,1,1.27-1.09,4.33,4.33,0,0,1,1.85-.36l-.19,1h-.29a2.92,2.92,0,0,0-2,.7,3.71,3.71,0,0,0-1.05,2.11l-.77,3.86h-1l1.5-7.6h1Zm5.43,3.91a3.32,3.32,0,0,0-.06.48c0,.67.37,1,1.1,1a1.92,1.92,0,0,0,1.17-.39l.25.78a2.73,2.73,0,0,1-1.69.49,1.92,1.92,0,0,1-1.36-.46,1.65,1.65,0,0,1-.49-1.27,3.73,3.73,0,0,1,.05-.6l.89-4.47h-1.35l.16-.87h1.36l.33-1.66h1l-.34,1.66h2.32l-.18.87h-2.31Zm11.16,2.38a6.35,6.35,0,0,1-2.13-.36,3.84,3.84,0,0,1-1.54-.92l.52-.84a3.51,3.51,0,0,0,1.41.88,5.25,5.25,0,0,0,1.84.33,3.92,3.92,0,0,0,2.16-.52,1.67,1.67,0,0,0,.82-1.47,1.13,1.13,0,0,0-.3-.82,2.35,2.35,0,0,0-.77-.51,11.18,11.18,0,0,0-1.26-.43c-.62-.18-1.13-.36-1.53-.52a2.77,2.77,0,0,1-1-.75,2,2,0,0,1-.41-1.3,2.61,2.61,0,0,1,.51-1.62,3.17,3.17,0,0,1,1.43-1,5.55,5.55,0,0,1,2.11-.38,6.57,6.57,0,0,1,1.73.23,4.3,4.3,0,0,1,1.4.64l-.45.86a3.72,3.72,0,0,0-1.25-.6,4.93,4.93,0,0,0-1.49-.22,3.71,3.71,0,0,0-2.14.55,1.71,1.71,0,0,0-.81,1.49,1.2,1.2,0,0,0,.32.85,2.29,2.29,0,0,0,.78.53,12.54,12.54,0,0,0,1.27.42,12.1,12.1,0,0,1,1.52.54,2.58,2.58,0,0,1,1,.72,1.8,1.8,0,0,1,.4,1.23,2.58,2.58,0,0,1-.53,1.64,3.19,3.19,0,0,1-1.46,1A5.89,5.89,0,0,1,144.34,124.59Zm14.09-7.68-1.52,7.6h-1l.24-1.22a3.6,3.6,0,0,1-2.93,1.29,2.87,2.87,0,0,1-2-.65,2.39,2.39,0,0,1-.71-1.83,4.41,4.41,0,0,1,.09-.86l.86-4.33h1l-.87,4.33a5,5,0,0,0-.07.68,1.68,1.68,0,0,0,.48,1.29,2.09,2.09,0,0,0,1.46.44,3,3,0,0,0,2-.67,3.47,3.47,0,0,0,1.07-2l.81-4.09Zm6.55-.06a3.66,3.66,0,0,1,1.72.39,2.81,2.81,0,0,1,1.18,1.11,3.36,3.36,0,0,1,.42,1.71,4.82,4.82,0,0,1-.56,2.32,4.12,4.12,0,0,1-1.53,1.62,4.24,4.24,0,0,1-2.21.58,3.63,3.63,0,0,1-1.82-.42,2.5,2.5,0,0,1-1.07-1.24l-.87,4.39h-1l2.06-10.4h1l-.25,1.21a3.62,3.62,0,0,1,1.3-.93A3.91,3.91,0,0,1,165,116.85Zm-1,6.82a3.15,3.15,0,0,0,1.68-.45,3.19,3.19,0,0,0,1.17-1.27,3.8,3.8,0,0,0,.43-1.83,2.29,2.29,0,0,0-.66-1.74,2.55,2.55,0,0,0-1.84-.63,3.14,3.14,0,0,0-2.86,1.73,4.05,4.05,0,0,0-.41,1.84,2.26,2.26,0,0,0,.65,1.73A2.59,2.59,0,0,0,164,123.67Zm10.79-6.82a3.69,3.69,0,0,1,1.72.39,2.81,2.81,0,0,1,1.18,1.11,3.36,3.36,0,0,1,.42,1.71,4.82,4.82,0,0,1-.56,2.32A4.12,4.12,0,0,1,176,124a4.27,4.27,0,0,1-2.21.58,3.6,3.6,0,0,1-1.82-.42,2.5,2.5,0,0,1-1.07-1.24l-.87,4.39h-1l2.06-10.4h1l-.24,1.21a3.53,3.53,0,0,1,1.3-.93A3.91,3.91,0,0,1,174.77,116.85Zm-1,6.82a3.15,3.15,0,0,0,1.68-.45,3.19,3.19,0,0,0,1.17-1.27,3.8,3.8,0,0,0,.43-1.83,2.29,2.29,0,0,0-.66-1.74,2.55,2.55,0,0,0-1.84-.63,3.15,3.15,0,0,0-1.69.46,3.2,3.2,0,0,0-1.17,1.27,3.93,3.93,0,0,0-.42,1.84,2.3,2.3,0,0,0,.65,1.73A2.63,2.63,0,0,0,173.77,123.67Zm9,.91a4,4,0,0,1-1.82-.39,3,3,0,0,1-1.22-1.13,3.37,3.37,0,0,1-.42-1.7,4.65,4.65,0,0,1,.57-2.31,3.94,3.94,0,0,1,1.56-1.6,4.34,4.34,0,0,1,2.26-.6,3.54,3.54,0,0,1,2.52.87,3.06,3.06,0,0,1,.94,2.34,4.72,4.72,0,0,1-.57,2.32A4.08,4.08,0,0,1,185,124,4.39,4.39,0,0,1,182.74,124.58Zm.07-.91a3.24,3.24,0,0,0,1.69-.45,3.19,3.19,0,0,0,1.17-1.27,3.86,3.86,0,0,0,.43-1.83,2.29,2.29,0,0,0-.66-1.74,2.55,2.55,0,0,0-1.84-.63,3.15,3.15,0,0,0-1.69.46,3.27,3.27,0,0,0-1.18,1.29,3.85,3.85,0,0,0-.42,1.82,2.3,2.3,0,0,0,.65,1.73A2.62,2.62,0,0,0,182.81,123.67Zm7.82-5.37a3.19,3.19,0,0,1,1.28-1.09,4.28,4.28,0,0,1,1.84-.36l-.18,1h-.29a2.92,2.92,0,0,0-2,.7,3.71,3.71,0,0,0-1.06,2.11l-.76,3.86h-1l1.5-7.6h1Zm5.43,3.91a4.82,4.82,0,0,0-.05.48c0,.67.36,1,1.09,1a1.87,1.87,0,0,0,1.17-.39l.25.78a2.71,2.71,0,0,1-1.69.49,1.93,1.93,0,0,1-1.36-.46,1.69,1.69,0,0,1-.49-1.27,2.84,2.84,0,0,1,.06-.6l.88-4.47h-1.34l.16-.87h1.35l.34-1.66h1l-.33,1.66h2.31l-.17.87H197Zm12.35-1.11-.68,3.41h-1l.69-3.48-2.71-6.63h1.07l2.34,5.69,4.59-5.69h1.14Zm7.34,3.48a4,4,0,0,1-1.82-.39,3,3,0,0,1-1.21-1.13,3.37,3.37,0,0,1-.42-1.7,4.76,4.76,0,0,1,.56-2.31,4.07,4.07,0,0,1,1.56-1.6,4.38,4.38,0,0,1,2.27-.6,3.5,3.5,0,0,1,2.51.87,3,3,0,0,1,.94,2.34,4.82,4.82,0,0,1-.56,2.32A4.1,4.1,0,0,1,218,124,4.34,4.34,0,0,1,215.75,124.58Zm.07-.91a3.11,3.11,0,0,0,2.86-1.72,3.87,3.87,0,0,0,.44-1.83,2.3,2.3,0,0,0-.67-1.74,2.51,2.51,0,0,0-1.83-.63,3.13,3.13,0,0,0-1.69.46,3.3,3.3,0,0,0-1.19,1.29,3.84,3.84,0,0,0-.41,1.82,2.29,2.29,0,0,0,.64,1.73A2.63,2.63,0,0,0,215.82,123.67Zm14-6.76-1.52,7.6h-1l.24-1.22a3.6,3.6,0,0,1-2.93,1.29,2.89,2.89,0,0,1-2-.65,2.39,2.39,0,0,1-.71-1.83,4.41,4.41,0,0,1,.09-.86l.86-4.33h1l-.87,4.33a5,5,0,0,0-.07.68,1.68,1.68,0,0,0,.48,1.29,2.09,2.09,0,0,0,1.46.44,3,3,0,0,0,2-.67,3.47,3.47,0,0,0,1.07-2l.81-4.09Zm3.58,1.39a3.1,3.1,0,0,1,1.27-1.09,4.3,4.3,0,0,1,1.85-.36l-.19,1H236a2.92,2.92,0,0,0-2,.7,3.78,3.78,0,0,0-1.06,2.11l-.76,3.86h-1l1.5-7.6h1Zm12.32,6.29a5.75,5.75,0,0,1-2.55-.52,3.82,3.82,0,0,1-1.63-1.47,4.39,4.39,0,0,1-.55-2.21,6.3,6.3,0,0,1,.75-3.06,5.73,5.73,0,0,1,2.17-2.2,6.37,6.37,0,0,1,3.24-.82,5.61,5.61,0,0,1,2.15.39,3.2,3.2,0,0,1,1.44,1.08l-.75.67a3.55,3.55,0,0,0-2.93-1.19,5,5,0,0,0-2.63.7,4.62,4.62,0,0,0-1.76,1.83,5.22,5.22,0,0,0-.62,2.54,3.16,3.16,0,0,0,1,2.42,4,4,0,0,0,2.79.89,4.4,4.4,0,0,0,3.21-1.2l.62.71a4.41,4.41,0,0,1-1.69,1.07A6.43,6.43,0,0,1,245.69,124.59Zm8.45,0a4,4,0,0,1-1.82-.39,2.94,2.94,0,0,1-1.21-1.13,3.37,3.37,0,0,1-.42-1.7,4.76,4.76,0,0,1,.56-2.31,4.07,4.07,0,0,1,1.56-1.6,4.35,4.35,0,0,1,2.27-.6,3.52,3.52,0,0,1,2.51.87,3,3,0,0,1,.94,2.34,4.82,4.82,0,0,1-.56,2.32,4.1,4.1,0,0,1-1.58,1.62A4.34,4.34,0,0,1,254.14,124.58Zm.07-.91a3.11,3.11,0,0,0,2.86-1.72,3.86,3.86,0,0,0,.43-1.83,2.29,2.29,0,0,0-.66-1.74,2.53,2.53,0,0,0-1.83-.63,3.13,3.13,0,0,0-1.69.46,3.3,3.3,0,0,0-1.19,1.29,3.85,3.85,0,0,0-.42,1.82,2.3,2.3,0,0,0,.65,1.73A2.63,2.63,0,0,0,254.21,123.67Zm16.41-6.82a2.79,2.79,0,0,1,2,.65,2.26,2.26,0,0,1,.71,1.79,5.08,5.08,0,0,1-.1.9l-.87,4.32h-1l.86-4.34a3.13,3.13,0,0,0,.08-.7,1.61,1.61,0,0,0-.48-1.25,2,2,0,0,0-1.4-.44,2.83,2.83,0,0,0-1.92.65,3.22,3.22,0,0,0-1,1.89l-.83,4.19h-1l.87-4.34a3.82,3.82,0,0,0,.07-.69,1.61,1.61,0,0,0-.48-1.26,2,2,0,0,0-1.4-.44,2.76,2.76,0,0,0-1.93.68,3.43,3.43,0,0,0-1,2l-.81,4.08h-1l1.5-7.6h1l-.25,1.21a3.53,3.53,0,0,1,2.88-1.27,3,3,0,0,1,1.58.39,2,2,0,0,1,.9,1.13,3.55,3.55,0,0,1,1.37-1.13A4.24,4.24,0,0,1,270.62,116.85Zm15.31,0a2.79,2.79,0,0,1,2,.65,2.3,2.3,0,0,1,.71,1.79,6.25,6.25,0,0,1-.1.9l-.87,4.32h-1l.87-4.34a3.14,3.14,0,0,0,.07-.7,1.64,1.64,0,0,0-.47-1.25,2,2,0,0,0-1.4-.44,2.87,2.87,0,0,0-1.93.65,3.21,3.21,0,0,0-1,1.89l-.84,4.19h-1l.86-4.34a4,4,0,0,0,.08-.69,1.61,1.61,0,0,0-.48-1.26,2,2,0,0,0-1.4-.44,2.79,2.79,0,0,0-1.94.68,3.49,3.49,0,0,0-1,2l-.81,4.08h-1l1.5-7.6h1l-.24,1.21a3.52,3.52,0,0,1,2.87-1.27,3,3,0,0,1,1.59.39,2,2,0,0,1,.89,1.13,3.65,3.65,0,0,1,1.38-1.13A4.23,4.23,0,0,1,285.93,116.85Zm12.88.06-1.52,7.6h-1l.24-1.22a3.6,3.6,0,0,1-2.93,1.29,2.87,2.87,0,0,1-2-.65,2.39,2.39,0,0,1-.71-1.83,4.41,4.41,0,0,1,.09-.86l.86-4.33h1l-.87,4.33a5,5,0,0,0-.07.68,1.68,1.68,0,0,0,.48,1.29,2.09,2.09,0,0,0,1.46.44,3,3,0,0,0,2-.67,3.47,3.47,0,0,0,1.07-2l.81-4.09Zm6.57-.06a2.77,2.77,0,0,1,2,.67,2.29,2.29,0,0,1,.72,1.8,4.59,4.59,0,0,1-.09.87l-.86,4.32h-1l.87-4.34a3.82,3.82,0,0,0,.07-.69,1.59,1.59,0,0,0-.5-1.26,2.16,2.16,0,0,0-1.46-.44,3,3,0,0,0-2,.68,3.34,3.34,0,0,0-1.06,2l-.81,4.08h-1l1.5-7.6h1l-.25,1.21A3.72,3.72,0,0,1,305.38,116.85Zm6.06.06h1l-1.5,7.6h-1Zm.95-1.66a.73.73,0,0,1-.51-.2.72.72,0,0,1-.18-.48.77.77,0,0,1,.21-.55.82.82,0,0,1,.58-.23.73.73,0,0,1,.51.2.62.62,0,0,1,.2.45.79.79,0,0,1-.81.81Zm3.07,7a3.32,3.32,0,0,0-.06.48c0,.67.37,1,1.1,1a1.92,1.92,0,0,0,1.17-.39l.24.78a2.69,2.69,0,0,1-1.69.49,1.91,1.91,0,0,1-1.35-.46,1.65,1.65,0,0,1-.49-1.27,3.73,3.73,0,0,1,.05-.6l.88-4.47H314l.16-.87h1.36l.33-1.66h1l-.34,1.66h2.31l-.17.87h-2.31Zm12-5.3-5.55,8.58a5,5,0,0,1-1.3,1.47,2.45,2.45,0,0,1-1.44.42,2.78,2.78,0,0,1-1-.19,1.77,1.77,0,0,1-.77-.49l.55-.75a1.77,1.77,0,0,0,1.35.55,1.62,1.62,0,0,0,.91-.27,3.29,3.29,0,0,0,.83-1l.54-.81-1.89-7.55h1l1.57,6.47,4.14-6.47Z"/><path class="cls-1" d="M114.43,70.79a14.08,14.08,0,0,0-9.67-6.52,5.76,5.76,0,0,0,1-.36,4.49,4.49,0,0,0,2.59-2.71,4.39,4.39,0,0,0,.24-1.9,4.45,4.45,0,0,0-.57-1.84,5.64,5.64,0,0,0-7.21-2,4.49,4.49,0,0,0-2.59,2.71,4.39,4.39,0,0,0-.24,1.9A4.58,4.58,0,0,0,98.52,62,5,5,0,0,0,101,64a15.81,15.81,0,0,0-6,1.48,14.91,14.91,0,0,0-2.89,1.81,14.86,14.86,0,0,0-5.7-2.6,5.75,5.75,0,0,0,1-.33,4.56,4.56,0,0,0,3.08-4.47,4.48,4.48,0,0,0-.46-1.87,5.6,5.6,0,0,0-7.15-2.32,4.48,4.48,0,0,0-1.64,1,4.6,4.6,0,0,0-1.44,3.48,4.68,4.68,0,0,0,.46,1.87,5,5,0,0,0,2.38,2.17,15.35,15.35,0,0,0-6,1.23c-10,4.38-10.35,14.44-7,20.86a8.37,8.37,0,0,0,.48.82c-.84-5-.47-12.67,7.38-16.09a14.19,14.19,0,0,1,11.33.08,12.73,12.73,0,0,1,3.71,2.45,12.9,12.9,0,0,1,3-2.24,6.54,6.54,0,0,1,.59-.3c6.37-3,14.24-.88,17.57,4.78a17.82,17.82,0,0,1,1.88,6.7C116.93,79.31,116.35,74,114.43,70.79Z"/><path class="cls-2" d="M111.19,89A6.38,6.38,0,0,0,112,86.5a9,9,0,0,0,.15-1.64,9.59,9.59,0,0,0-9.74-9.44,9.74,9.74,0,0,0-9.41,7,9.72,9.72,0,0,0-9.16-6.18,9.55,9.55,0,0,0-6.81,2.7,9.65,9.65,0,0,0-2.93,6.75A9.11,9.11,0,0,0,75,89.53c.08.18.18.37.29.57v.11c3.4,6,17.53,16,17.53,16s12.83-9.06,17.54-15.84a10.77,10.77,0,0,0,.85-1.37Z"/><path class="cls-1" d="M153.58,98.5a14.29,14.29,0,0,0,10.8-4.33l-2-2a11.55,11.55,0,0,1-8.7,3.53c-7.1,0-12.44-5.21-12.44-12.18s5.34-12.19,12.44-12.19a11.66,11.66,0,0,1,8.7,3.49l2-2a14.22,14.22,0,0,0-10.75-4.29c-8.87,0-15.42,6.34-15.42,15S144.76,98.5,153.58,98.5Zm24.85,0A11.24,11.24,0,1,0,167.17,87.2,10.87,10.87,0,0,0,178.43,98.46Zm0-2.65c-4.71,0-8.24-3.44-8.24-8.61s3.53-8.61,8.24-8.61,8.19,3.44,8.19,8.61S183.13,95.81,178.43,95.81ZM223.29,76c-4,0-7.14,1.81-8.74,4.67-1.34-3.11-4.2-4.67-7.85-4.67s-6.56,1.56-8.11,4.21v-4h-2.86v22.1h3V86.65c0-5,2.9-8,7.4-8,4,0,6.39,2.4,6.39,7.06V98.25h3V86.65c0-5,2.85-8,7.39-8,4,0,6.35,2.4,6.35,7.06V98.25h3V85.44C232.2,79.09,228.67,76,223.29,76Zm44.56,0c-4,0-7.15,1.81-8.74,4.67-1.35-3.11-4.2-4.67-7.86-4.67s-6.55,1.56-8.11,4.21v-4h-2.85v22.1h3V86.65c0-5,2.9-8,7.39-8,4,0,6.39,2.4,6.39,7.06V98.25h3V86.65c0-5,2.86-8,7.4-8,4,0,6.34,2.4,6.34,7.06V98.25h3V85.44C276.75,79.09,273.22,76,267.85,76Z"/><path class="cls-3" d="M303.71,91.44H289l-2.9,6.81h-5.63l13.24-29.41h5.37l13.28,29.41h-5.71Zm-1.81-4.28L296.35,74.3l-5.5,12.86Zm13.69-11.34h5.26V98.25h-5.26Zm2.65-3.7a3.44,3.44,0,0,1-2.39-.88,3,3,0,0,1-1-2.27,2.87,2.87,0,0,1,1-2.23,3.34,3.34,0,0,1,2.39-.92,3.44,3.44,0,0,1,2.4.88,2.71,2.71,0,0,1,1,2.14,3.19,3.19,0,0,1-1,2.35A3.25,3.25,0,0,1,318.24,72.12Zm31.47-5V98.25h-5v-2.9a8.14,8.14,0,0,1-3.24,2.4,10.73,10.73,0,0,1-4.2.79,12,12,0,0,1-5.84-1.42,10.43,10.43,0,0,1-4-4,12.23,12.23,0,0,1-1.47-6,12,12,0,0,1,1.47-6,10.37,10.37,0,0,1,4-4,12,12,0,0,1,5.84-1.43,10.74,10.74,0,0,1,4.08.76,8.17,8.17,0,0,1,3.15,2.27V67.08Zm-11.85,27a6.92,6.92,0,0,0,3.41-.84,6.48,6.48,0,0,0,2.39-2.48,8.2,8.2,0,0,0,0-7.39,6.1,6.1,0,0,0-2.39-2.44,7,7,0,0,0-6.81,0,6,6,0,0,0-2.39,2.44,8.12,8.12,0,0,0,0,7.39,6.34,6.34,0,0,0,2.39,2.48A6.88,6.88,0,0,0,337.86,94.05Z"/><polyline class="cls-4" points="61.43 63.62 24.92 63.62 24.92 97.73 71.72 97.73"/><circle cx="61.85" cy="63.63" r="2.19"/><circle cx="209.56" cy="139.48" r="2.19"/><circle cx="229.79" cy="61.44" r="2.19"/><circle cx="317.34" cy="59.26" r="2.19"/><circle cx="71.72" cy="97.73" r="2.19"/><line class="cls-4" x1="209.56" y1="155.54" x2="209.56" y2="139.48"/><polyline class="cls-4" points="229.79 61.44 229.79 37.53 317.35 37.53 317.35 59.26"/><line class="cls-4" x1="276.62" y1="37.53" x2="276.62" y2="19.77"/><line class="cls-5" x1="24.92" y1="75.82" x2="11.78" y2="75.82"/></g></g></svg>