<svg width="183" height="192" viewBox="0 0 183 192" fill="none" xmlns="http://www.w3.org/2000/svg">
<g clip-path="url(#clip0)">
<path d="M175.836 59.3885C171.861 52.9614 166.551 47.4585 160.265 43.2502C153.978 39.0419 146.86 36.226 139.391 34.9921C140.661 34.6419 141.901 34.1933 143.101 33.6503C145.359 32.7518 147.399 31.3815 149.083 29.6315C150.766 27.8816 152.055 25.7925 152.862 23.5047C153.669 21.2168 153.976 18.7831 153.762 16.3672C153.548 13.9513 152.818 11.609 151.621 9.49781C148.749 5.19629 144.408 2.08235 139.406 0.7359C134.403 -0.610548 129.081 -0.0977202 124.43 2.17888C122.171 3.07741 120.131 4.44768 118.448 6.19763C116.764 7.94757 115.475 10.0366 114.668 12.3245C113.861 14.6124 113.554 17.046 113.769 19.462C113.983 21.8779 114.713 24.2201 115.909 26.3314C118.075 29.8781 121.358 32.6092 125.245 34.0976C117.468 34.4628 109.837 36.3414 102.783 39.6274C98.91 41.4753 95.2587 43.7532 91.8981 46.4178C85.5151 41.6763 78.1905 38.3493 70.4143 36.6592C71.6997 36.3697 72.9553 35.9614 74.1648 35.4394C76.4686 34.6487 78.5777 33.379 80.3526 31.7143C82.1274 30.0496 83.5275 28.0278 84.4602 25.7829C85.3929 23.538 85.8369 21.121 85.7627 18.6921C85.6886 16.2632 85.0981 13.8777 84.0302 11.6935C81.4049 7.18419 77.2016 3.80153 72.2278 2.19542C67.2539 0.589311 61.8605 0.87304 57.0837 2.99209C54.7825 3.79287 52.6772 5.06996 50.9058 6.73956C49.1344 8.40916 47.7371 10.4335 46.8054 12.6798C45.8738 14.926 45.429 17.3434 45.5001 19.7732C45.5712 22.2031 46.1568 24.5904 47.2182 26.7786C49.2277 30.401 52.3806 33.2598 56.1868 34.9108C48.4127 34.9158 40.7188 36.4783 33.5615 39.5054C-4.06579 55.9324 -5.45185 93.5842 7.10418 117.615C7.64706 118.676 8.2458 119.707 8.8979 120.705C5.75889 102.164 7.14495 73.2538 36.7005 60.4457C43.4595 57.5917 50.7317 56.1449 58.0712 56.1938C65.4107 56.2428 72.6628 57.7865 79.3829 60.7303C84.5387 62.9691 89.2689 66.0778 93.3657 69.9197C96.7647 66.5798 100.638 63.7575 104.862 61.5436C105.574 61.124 106.309 60.7439 107.063 60.4051C131.075 49.1014 160.712 57.1115 173.268 78.2958C177.244 86.1192 179.653 94.6406 180.361 103.383C185.253 91.3072 183.052 71.5461 175.836 59.3885Z" fill="#2DC117"/>
<path d="M163.605 127.614C165.316 124.741 166.4 121.54 166.785 118.221C167.163 116.196 167.354 114.141 167.356 112.081C167.184 102.544 163.224 93.4651 156.344 86.8395C149.464 80.2139 140.228 76.5838 130.666 76.747C122.707 76.6837 114.943 79.2039 108.545 83.9274C102.147 88.6508 97.4634 95.3213 95.1996 102.932C92.4709 96.0499 87.714 90.1543 81.5568 86.0238C75.3995 81.8933 68.1313 79.722 60.7113 79.7965C51.1486 79.655 41.9191 83.2978 35.0429 89.9275C28.1667 96.5573 24.2038 105.634 24.0216 115.171C24.0199 120.143 25.105 125.055 27.2014 129.565C27.5275 130.256 27.8944 130.948 28.302 131.68C28.295 131.829 28.295 131.978 28.302 132.127C41.1027 154.572 94.3435 192.061 94.3435 192.061C94.3435 192.061 142.692 158.15 160.426 132.737C161.609 131.108 162.672 129.396 163.605 127.614Z" fill="#FFC627"/>
</g>
<defs>
<clipPath id="clip0">
<rect width="183" height="192" fill="white"/>
</clipPath>
</defs>
</svg>
